<?xml version="1.0" encoding="UTF-8"?><svg id="Layer_1" xmlns="http://www.w3.org/2000/svg" xmlns:xlink="http://www.w3.org/1999/xlink" viewBox="0 0 1227.77424 995.36719"><defs><style>.cls-1{fill:#fff;}.cls-2{fill:#76b900;opacity:.15;stroke:#000;stroke-miterlimit:10;stroke-width:3px;}.cls-3{fill:url(#radial-gradient);}</style><radialGradient id="radial-gradient" cx="605.66573" cy="416.69773" fx="605.66573" fy="416.69773" r="410.43581" gradientUnits="userSpaceOnUse"><stop offset=".15242" stop-color="#76b900"/><stop offset=".17393" stop-color="#7bbb0a"/><stop offset=".30934" stop-color="#9ecd4a"/><stop offset=".44311" stop-color="#bbdc81"/><stop offset=".57184" stop-color="#d3e8ae"/><stop offset=".69465" stop-color="#e6f2d1"/><stop offset=".80998" stop-color="#f4f9ea"/><stop offset=".9149" stop-color="#fcfdf9"/><stop offset="1" stop-color="#fff"/></radialGradient></defs><g><path d="m389.03941,868.32031l-9.36035-25.2002h5.68848l6.19141,18.57617,6.19238-18.57617h5.39941l-9.39551,25.2002h-4.71582Z"/><path d="m409.1273,868.82422c-1.99316,0-3.53418-.49219-4.62598-1.47656-1.09277-.9834-1.63867-2.36328-1.63867-4.13965,0-1.63184.49805-2.93945,1.49414-3.92383s2.44238-1.5957,4.33789-1.83594l5.83203-.75586v-.14453c0-2.18359-.99609-3.27539-2.9873-3.27539h-.36035c-.88867,0-1.63281.16113-2.23242.48535s-1.10352.89453-1.51172,1.70996l-3.85156-2.01562c.55176-1.27148,1.48145-2.29199,2.79004-3.06055,1.30762-.76758,2.89746-1.15137,4.76953-1.15137h.54004c5.25586,0,7.88379,2.45996,7.88379,7.37988v11.7002h-4.3916v-2.33984c-.57617.8877-1.37402,1.58398-2.39453,2.08789s-2.17773.75586-3.47363.75586h-.17969Zm5.39941-8.74805l-3.85156.54004c-1.10449.16797-1.87207.40234-2.30371.70215-.43262.2998-.64844.78613-.64844,1.45801,0,.64746.24609,1.1582.73828,1.5293.49121.37305,1.14551.55859,1.96191.55859h.28809c1.19922,0,2.13574-.34766,2.80762-1.04395s1.00781-1.64355,1.00781-2.84473v-.89941Z"/><path d="m424.03062,868.32031v-18.57617h4.3916v3.16797c.50391-1.08008,1.13965-1.91406,1.9082-2.50195.76758-.58789,1.81152-.88184,3.13184-.88184h1.98047v4.64355h-1.7998c-.7207,0-1.42871.14453-2.12402.43262-.69629.28711-1.27832.78613-1.74609,1.49316-.46875.70898-.70215,1.68652-.70215,2.93457v9.28809h-5.04004Z"/><path d="m438.71812,847.11621v-5.04004h5.18457v5.04004h-5.18457Zm.07227,21.2041v-18.57617h5.04004v18.57617h-5.04004Z"/><path d="m453.87437,868.82422c-1.99316,0-3.53418-.49219-4.62598-1.47656-1.09277-.9834-1.63867-2.36328-1.63867-4.13965,0-1.63184.49805-2.93945,1.49414-3.92383s2.44238-1.5957,4.33789-1.83594l5.83203-.75586v-.14453c0-2.18359-.99609-3.27539-2.9873-3.27539h-.36035c-.88867,0-1.63281.16113-2.23242.48535s-1.10352.89453-1.51172,1.70996l-3.85156-2.01562c.55176-1.27148,1.48145-2.29199,2.79004-3.06055,1.30762-.76758,2.89746-1.15137,4.76953-1.15137h.54004c5.25586,0,7.88379,2.45996,7.88379,7.37988v11.7002h-4.3916v-2.33984c-.57617.8877-1.37402,1.58398-2.39453,2.08789s-2.17773.75586-3.47363.75586h-.17969Zm5.39941-8.74805l-3.85156.54004c-1.10449.16797-1.87207.40234-2.30371.70215-.43262.2998-.64844.78613-.64844,1.45801,0,.64746.24609,1.1582.73828,1.5293.49121.37305,1.14551.55859,1.96191.55859h.28809c1.19922,0,2.13574-.34766,2.80762-1.04395s1.00781-1.64355,1.00781-2.84473v-.89941Z"/><path d="m477.16539,868.53613c-2.56836,0-4.38574-.55176-5.4541-1.65625-1.06836-1.10352-1.60156-2.74805-1.60156-4.93164v-7.99219h-3.8877v-4.21191h3.8877v-5.29199h5.04004v5.29199h5.72363l-.6123,4.21191h-5.11133v7.8125c0,.8877.22168,1.5293.66602,1.92578.44336.39551,1.0498.59375,1.81738.59375h3.24023v4.24805h-3.70801Z"/><path d="m484.29332,847.11621v-5.04004h5.18457v5.04004h-5.18457Zm.07227,21.2041v-18.57617h5.04004v18.57617h-5.04004Z"/><path d="m502.18492,868.82422c-1.72852,0-3.27637-.36035-4.64453-1.08008-1.36719-.71973-2.44727-1.76953-3.23926-3.15039-.79199-1.37988-1.18848-3.05371-1.18848-5.02148v-1.08008c0-1.99219.39648-3.67188,1.18848-5.04004s1.87207-2.41211,3.23926-3.13184c1.36816-.7207,2.91602-1.08008,4.64453-1.08008h.25195c1.72754,0,3.27539.35938,4.64355,1.08008,1.36816.71973,2.44824,1.76367,3.24023,3.13184s1.18848,3.04785,1.18848,5.04004v1.08008c0,1.96777-.39648,3.6416-1.18848,5.02148-.79199,1.38086-1.87207,2.43066-3.24023,3.15039s-2.91602,1.08008-4.64355,1.08008h-.25195Zm0-4.32031h.25195c1.17578,0,2.1416-.38379,2.89746-1.15137.75684-.76855,1.13477-1.99219,1.13477-3.67285v-1.2959c0-1.67969-.37793-2.90332-1.13477-3.67188-.75586-.76758-1.72168-1.15137-2.89746-1.15137h-.25195c-1.17676,0-2.14258.38379-2.89844,1.15137-.75586.76855-1.13379,1.99219-1.13379,3.67188v1.2959c0,1.68066.37793,2.9043,1.13379,3.67285.75586.76758,1.72168,1.15137,2.89844,1.15137Z"/><path d="m515.21617,868.32031v-18.57617h4.39258v2.30371c.62402-.8877,1.42188-1.57715,2.39355-2.06934.97266-.49219,2.05762-.73828,3.25781-.73828h.36035c2.11133,0,3.78613.6543,5.02246,1.96191,1.23535,1.30859,1.85352,3.17383,1.85352,5.59766v11.52051h-5.04004v-10.83594c0-1.24805-.25781-2.21387-.77344-2.89844-.5166-.68359-1.32715-1.02539-2.43066-1.02539h-.28809c-.59961,0-1.18164.15625-1.74609.46777-.56348.31152-1.03223.79199-1.40332,1.43945-.37305.64844-.55859,1.5-.55859,2.55664v10.2959h-5.04004Z"/><path d="m542.32457,868.82422c-1.99316,0-3.53418-.49219-4.62598-1.47656-1.09277-.9834-1.63867-2.36328-1.63867-4.13965,0-1.63184.49805-2.93945,1.49414-3.92383s2.44238-1.5957,4.33789-1.83594l5.83203-.75586v-.14453c0-2.18359-.99609-3.27539-2.9873-3.27539h-.36035c-.88867,0-1.63281.16113-2.23242.48535s-1.10352.89453-1.51172,1.70996l-3.85156-2.01562c.55176-1.27148,1.48145-2.29199,2.79004-3.06055,1.30762-.76758,2.89746-1.15137,4.76953-1.15137h.54004c5.25586,0,7.88379,2.45996,7.88379,7.37988v11.7002h-4.3916v-2.33984c-.57617.8877-1.37402,1.58398-2.39453,2.08789s-2.17773.75586-3.47363.75586h-.17969Zm5.39941-8.74805l-3.85156.54004c-1.10449.16797-1.87207.40234-2.30371.70215-.43262.2998-.64844.78613-.64844,1.45801,0,.64746.24609,1.1582.73828,1.5293.49121.37305,1.14551.55859,1.96191.55859h.28809c1.19922,0,2.13574-.34766,2.80762-1.04395s1.00781-1.64355,1.00781-2.84473v-.89941Z"/><path d="m557.22789,868.32031v-26.28027h5.04004v26.28027h-5.04004Z"/><path d="m574.03941,868.32031l9.71973-25.2002h4.7168l9.75586,25.2002h-5.68848l-1.7998-5.07617h-9.54004l-1.7998,5.07617h-5.36426Zm8.71191-9.39648h6.44434l-3.2041-9.03613-3.24023,9.03613Z"/><path d="m607.08726,868.82422c-2.04004,0-3.66016-.65332-4.86035-1.96191-1.2002-1.30762-1.7998-3.17383-1.7998-5.59863v-11.51953h5.04004v10.83594c0,1.24805.24023,2.21387.71973,2.89844.48047.68359,1.23633,1.02539,2.26855,1.02539h.28809c.57617,0,1.12793-.15527,1.65625-.46777.52734-.31152.96582-.79785,1.31348-1.45801s.52246-1.50586.52246-2.53809v-10.2959h5.04004v18.57617h-4.39258v-2.30469c-.59961.91309-1.36816,1.6084-2.30371,2.08887-.93652.47949-1.98047.71973-3.13184.71973h-.36035Z"/><path d="m630.52378,868.53613c-2.56836,0-4.38672-.55176-5.4541-1.65625-1.06836-1.10352-1.60254-2.74805-1.60254-4.93164v-7.99219h-3.8877v-4.21191h3.8877v-5.29199h5.04004v5.29199h5.72461l-.6123,4.21191h-5.1123v7.8125c0,.8877.22168,1.5293.66602,1.92578.44434.39551,1.0498.59375,1.81836.59375h3.24023v4.24805h-3.70801Z"/><path d="m645.82359,868.82422c-1.72852,0-3.27637-.36035-4.64453-1.08008-1.36719-.71973-2.44727-1.76953-3.23926-3.15039-.79199-1.37988-1.18848-3.05371-1.18848-5.02148v-1.08008c0-1.99219.39648-3.67188,1.18848-5.04004s1.87207-2.41211,3.23926-3.13184c1.36816-.7207,2.91602-1.08008,4.64453-1.08008h.25195c1.72754,0,3.27539.35938,4.64355,1.08008,1.36816.71973,2.44824,1.76367,3.24023,3.13184s1.18848,3.04785,1.18848,5.04004v1.08008c0,1.96777-.39648,3.6416-1.18848,5.02148-.79199,1.38086-1.87207,2.43066-3.24023,3.15039s-2.91602,1.08008-4.64355,1.08008h-.25195Zm0-4.32031h.25195c1.17578,0,2.1416-.38379,2.89746-1.15137.75684-.76855,1.13477-1.99219,1.13477-3.67285v-1.2959c0-1.67969-.37793-2.90332-1.13477-3.67188-.75586-.76758-1.72168-1.15137-2.89746-1.15137h-.25195c-1.17676,0-2.14258.38379-2.89844,1.15137-.75586.76855-1.13379,1.99219-1.13379,3.67188v1.2959c0,1.68066.37793,2.9043,1.13379,3.67285.75586.76758,1.72168,1.15137,2.89844,1.15137Z"/><path d="m666.81089,868.82422c-2.83203,0-5.02832-.80371-6.58789-2.41211-1.56055-1.60742-2.33984-3.87598-2.33984-6.80371v-1.08008c0-2.92773.79199-5.20801,2.37598-6.83984s3.76758-2.44824,6.55176-2.44824h.28809c2.63965,0,4.69824.79785,6.17383,2.39355,1.47656,1.59668,2.21484,3.79785,2.21484,6.60645v2.26758h-12.63672c.16797,2.85645,1.48828,4.28418,3.95996,4.28418h.50391c1.89648,0,3.22852-.63574,3.99609-1.9082l3.63672,2.41211c-.67285,1.10449-1.6748,1.96875-3.00684,2.5918-1.33105.62402-2.86133.93652-4.58984.93652h-.54004Zm-3.92383-11.7002h7.7041v-.1084c0-2.49512-1.16406-3.74316-3.49219-3.74316h-.28809c-2.30371,0-3.6123,1.28418-3.92383,3.85156Z"/><path d="m679.05015,868.32031v-18.57617h4.39258v2.30371c.62402-.8877,1.42188-1.57715,2.39355-2.06934.97266-.49219,2.05762-.73828,3.25781-.73828h.36035c2.11133,0,3.78613.6543,5.02246,1.96191,1.23535,1.30859,1.85352,3.17383,1.85352,5.59766v11.52051h-5.04004v-10.83594c0-1.24805-.25781-2.21387-.77344-2.89844-.5166-.68359-1.32715-1.02539-2.43066-1.02539h-.28809c-.59961,0-1.18164.15625-1.74609.46777-.56348.31152-1.03223.79199-1.40332,1.43945-.37305.64844-.55859,1.5-.55859,2.55664v10.2959h-5.04004Z"/><path d="m708.93003,868.82422c-2.78418,0-4.99805-.79199-6.6416-2.37598-1.64453-1.58398-2.46582-3.87598-2.46582-6.87598v-1.08008c0-1.96777.37793-3.6416,1.13379-5.02246.75586-1.37988,1.81738-2.42969,3.18555-3.14941,1.36816-.7207,2.96387-1.08008,4.78809-1.08008h.28809c1.7998,0,3.31738.43164,4.55371,1.2959s2.11816,2.00391,2.64648,3.41992l-4.06836,1.72754c-.28809-.62305-.68945-1.13379-1.20605-1.5293-.51562-.39648-1.1582-.59375-1.92578-.59375h-.25195c-1.22363,0-2.21387.38965-2.96973,1.16992s-1.13379,1.99805-1.13379,3.65332v1.2959c0,1.70508.36523,2.93457,1.09766,3.69043.73145.75586,1.7334,1.13379,3.00586,1.13379h.25195c.83984,0,1.53613-.17969,2.08789-.54004.55176-.35938.98438-.85156,1.2959-1.47559l3.92383,2.05176c-.52734,1.22363-1.42773,2.24414-2.69922,3.05957-1.27246.81641-2.80859,1.22461-4.6084,1.22461h-.28809Z"/><path d="m727.97398,868.82422c-1.72754,0-3.27539-.36035-4.64355-1.08008s-2.44824-1.76953-3.24023-3.15039c-.79199-1.37988-1.1875-3.05371-1.1875-5.02148v-1.08008c0-1.99219.39551-3.67188,1.1875-5.04004s1.87207-2.41211,3.24023-3.13184c1.36816-.7207,2.91602-1.08008,4.64355-1.08008h.25195c1.72852,0,3.27637.35938,4.64453,1.08008,1.36816.71973,2.44824,1.76367,3.24023,3.13184s1.1875,3.04785,1.1875,5.04004v1.08008c0,1.96777-.39551,3.6416-1.1875,5.02148-.79199,1.38086-1.87207,2.43066-3.24023,3.15039s-2.91602,1.08008-4.64453,1.08008h-.25195Zm0-4.32031h.25195c1.17578,0,2.14258-.38379,2.89844-1.15137.75586-.76855,1.13379-1.99219,1.13379-3.67285v-1.2959c0-1.67969-.37793-2.90332-1.13379-3.67188-.75586-.76758-1.72266-1.15137-2.89844-1.15137h-.25195c-1.17578,0-2.1416.38379-2.89746,1.15137-.75586.76855-1.13379,1.99219-1.13379,3.67188v1.2959c0,1.68066.37793,2.9043,1.13379,3.67285.75586.76758,1.72168,1.15137,2.89746,1.15137Z"/><path d="m747.77378,868.82422c-1.48828,0-2.82031-.35449-3.99609-1.0625-1.17578-.70703-2.09375-1.75781-2.75391-3.14941s-.98926-3.08398-.98926-5.07617v-1.08008c0-1.99219.3291-3.67188.98926-5.04004s1.57812-2.40527,2.75391-3.11426c1.17578-.70703,2.50781-1.06152,3.99609-1.06152h.25195c2.23242,0,3.97266.74414,5.2207,2.23145v-9.43164h5.04004v26.28027h-4.39258v-2.30469c-1.27246,1.87207-3.22754,2.80859-5.86816,2.80859h-.25195Zm1.33203-4.32031h.28809c.64844,0,1.27246-.16211,1.87207-.48535.59961-.32422,1.0918-.84668,1.47656-1.56641.38281-.71973.5752-1.66797.5752-2.84375v-1.15234c0-1.17578-.19727-2.12402-.59375-2.84375-.39551-.7207-.89453-1.24219-1.49414-1.56641s-1.21191-.48535-1.83594-.48535h-.28809c-1.15137,0-2.1123.38379-2.87988,1.15137-.76855.76855-1.15137,2.00391-1.15137,3.70801v1.18848c0,1.7041.38281,2.94629,1.15137,3.72559.76758.78027,1.72852,1.16992,2.87988,1.16992Z"/><path d="m770.92124,868.82422c-2.83203,0-5.02832-.80371-6.58789-2.41211-1.56055-1.60742-2.33984-3.87598-2.33984-6.80371v-1.08008c0-2.92773.79199-5.20801,2.37598-6.83984s3.76758-2.44824,6.55176-2.44824h.28809c2.63965,0,4.69824.79785,6.17383,2.39355,1.47656,1.59668,2.21484,3.79785,2.21484,6.60645v2.26758h-12.63672c.16797,2.85645,1.48828,4.28418,3.95996,4.28418h.50391c1.89648,0,3.22852-.63574,3.99609-1.9082l3.63672,2.41211c-.67285,1.10449-1.6748,1.96875-3.00684,2.5918-1.33105.62402-2.86133.93652-4.58984.93652h-.54004Zm-3.92383-11.7002h7.7041v-.1084c0-2.49512-1.16406-3.74316-3.49219-3.74316h-.28809c-2.30371,0-3.6123,1.28418-3.92383,3.85156Z"/><path d="m783.1605,868.32031v-18.57617h4.39258v3.16797c.50391-1.08008,1.13965-1.91406,1.9082-2.50195.76758-.58789,1.81152-.88184,3.13184-.88184h1.97949v4.64355h-1.7998c-.71973,0-1.42773.14453-2.12402.43262-.69629.28711-1.27832.78613-1.74609,1.49316-.46777.70898-.70215,1.68652-.70215,2.93457v9.28809h-5.04004Z"/><path d="m804.473,868.82422c-4.32031,0-7.04395-1.41602-8.17188-4.24805l3.92383-1.98047c.33594.7207.83984,1.25488,1.51172,1.60254s1.5957.52148,2.77246.52148h.46777c2.06348,0,3.0957-.54004,3.0957-1.62012v-.14355c0-.91211-.59961-1.45215-1.7998-1.62012l-3.74414-.50391c-1.82422-.26367-3.22168-.85742-4.19434-1.78223-.97168-.92383-1.45801-2.16504-1.45801-3.72559v-.36035c0-1.77539.67871-3.17383,2.03418-4.19336,1.35547-1.02051,3.16211-1.53027,5.41797-1.53027h.54004c1.87207,0,3.45605.36621,4.75195,1.09766,1.2959.73242,2.23242,1.77051,2.80859,3.11426l-3.99609,1.76367c-.57617-1.24707-1.77637-1.87207-3.60059-1.87207h-.46777c-1.75195,0-2.62793.5166-2.62793,1.54785v.14453c0,.38379.13184.69043.39648.91797.26367.22852.69531.39062,1.2959.48633l3.8877.54004c1.7998.24023,3.18652.87012,4.1582,1.88965.97168,1.02051,1.45801,2.31055,1.45801,3.87012v.35938c0,1.89648-.67188,3.3252-2.0166,4.28418-1.34375.95996-3.31152,1.44043-5.90332,1.44043h-.54004Z"/><path d="m816.78453,874.87207l-1.58398-2.23242,1.33203-.93555c.57617-.4082,1.00879-.80957,1.2959-1.20605.28809-.39551.43262-1.06152.43262-1.99805v-.17969h-2.41211v-5.47266h5.29199v5.76074c0,1.00781-.12598,1.8291-.37793,2.46582-.25195.63574-.61816,1.17578-1.09863,1.62012-.47949.44336-1.06738.90527-1.76367,1.38574l-1.11621.79199Z"/><path d="m451.94761,911.52051v-25.2002h4.68066l11.41211,16.45215v-16.45215h5.00391v25.2002h-4.68066l-11.41113-16.45215v16.45215h-5.00488Z"/><path d="m486.47203,912.02441c-1.72852,0-3.27637-.36035-4.64453-1.08008-1.36719-.71973-2.44727-1.76953-3.23926-3.15039-.79199-1.37988-1.18848-3.05371-1.18848-5.02148v-1.08008c0-1.99219.39648-3.67188,1.18848-5.04004s1.87207-2.41211,3.23926-3.13184c1.36816-.7207,2.91602-1.08008,4.64453-1.08008h.25195c1.72754,0,3.27539.35938,4.64355,1.08008,1.36816.71973,2.44824,1.76367,3.24023,3.13184s1.18848,3.04785,1.18848,5.04004v1.08008c0,1.96777-.39648,3.6416-1.18848,5.02148-.79199,1.38086-1.87207,2.43066-3.24023,3.15039s-2.91602,1.08008-4.64355,1.08008h-.25195Zm0-4.32031h.25195c1.17578,0,2.1416-.38379,2.89746-1.15137.75684-.76855,1.13477-1.99219,1.13477-3.67285v-1.2959c0-1.67969-.37793-2.90332-1.13477-3.67188-.75586-.76758-1.72168-1.15137-2.89746-1.15137h-.25195c-1.17676,0-2.14258.38379-2.89844,1.15137-.75586.76855-1.13379,1.99219-1.13379,3.67188v1.2959c0,1.68066.37793,2.9043,1.13379,3.67285.75586.76758,1.72168,1.15137,2.89844,1.15137Z"/><path d="m499.50328,911.52051v-18.57617h4.39258v3.16797c.50391-1.08008,1.13965-1.91406,1.9082-2.50195.76758-.58789,1.81152-.88184,3.13184-.88184h1.97949v4.64355h-1.7998c-.71973,0-1.42773.14453-2.12402.43262-.69629.28711-1.27832.78613-1.74609,1.49316-.46777.70898-.70215,1.68652-.70215,2.93457v9.28809h-5.04004Z"/><path d="m513.54332,911.52051v-18.57617h4.39258v2.26758c.59961-.8877,1.35547-1.57129,2.26758-2.05176.91211-.47949,1.94434-.71973,3.09668-.71973h.35938c2.5918,0,4.45215,1.00781,5.58008,3.02344.62402-.95898,1.42188-1.70312,2.39453-2.23145.97168-.52734,2.08105-.79199,3.3291-.79199h.36035c2.0166,0,3.61816.6543,4.80566,1.96191,1.18848,1.30859,1.78223,3.17383,1.78223,5.59766v11.52051h-5.04004v-10.83594c0-1.24805-.2334-2.21387-.70215-2.89844-.46777-.68359-1.20605-1.02539-2.21387-1.02539h-.28809c-.81543,0-1.58984.35352-2.32129,1.06152-.73242.70801-1.09863,1.8418-1.09863,3.40234v10.2959h-5.04004v-10.83594c0-1.24805-.2334-2.21387-.70215-2.89844-.46777-.68359-1.20508-1.02539-2.21387-1.02539h-.28809c-.81543,0-1.58984.35352-2.32129,1.06152-.73242.70801-1.09863,1.8418-1.09863,3.40234v10.2959h-5.04004Z"/><path d="m551.7396,912.02441c-1.99316,0-3.53418-.49219-4.62598-1.47656-1.09277-.9834-1.63867-2.36328-1.63867-4.13965,0-1.63184.49805-2.93945,1.49414-3.92383s2.44238-1.5957,4.33789-1.83594l5.83203-.75586v-.14453c0-2.18359-.99609-3.27539-2.9873-3.27539h-.36035c-.88867,0-1.63281.16113-2.23242.48535s-1.10352.89453-1.51172,1.70996l-3.85156-2.01562c.55176-1.27148,1.48145-2.29199,2.79004-3.06055,1.30762-.76758,2.89746-1.15137,4.76953-1.15137h.54004c5.25586,0,7.88379,2.45996,7.88379,7.37988v11.7002h-4.3916v-2.33984c-.57617.8877-1.37402,1.58398-2.39453,2.08789s-2.17773.75586-3.47363.75586h-.17969Zm5.39941-8.74805l-3.85156.54004c-1.10449.16797-1.87207.40234-2.30371.70215-.43262.2998-.64844.78613-.64844,1.45801,0,.64746.24609,1.1582.73828,1.5293.49121.37305,1.14551.55859,1.96191.55859h.28809c1.19922,0,2.13574-.34766,2.80762-1.04395s1.00781-1.64355,1.00781-2.84473v-.89941Z"/><path d="m566.64292,911.52051v-26.28027h5.04004v26.28027h-5.04004Z"/><path d="m576.29039,890.31641v-5.04004h5.18457v5.04004h-5.18457Zm.07227,21.2041v-18.57617h5.04004v18.57617h-5.04004Z"/><path d="m585.21812,911.52051v-3.81641l8.60352-10.51172h-8.3877v-4.24805h14.7959v3.81641l-8.60449,10.51172h8.82031v4.24805h-15.22754Z"/><path d="m604.18882,890.31641v-5.04004h5.18457v5.04004h-5.18457Zm.07227,21.2041v-18.57617h5.04004v18.57617h-5.04004Z"/><path d="m613.98082,911.52051v-18.57617h4.3916v2.30371c.62402-.8877,1.42188-1.57715,2.39453-2.06934.97168-.49219,2.05762-.73828,3.25781-.73828h.36035c2.11133,0,3.78516.6543,5.02148,1.96191,1.23633,1.30859,1.85449,3.17383,1.85449,5.59766v11.52051h-5.04004v-10.83594c0-1.24805-.25879-2.21387-.77441-2.89844-.5166-.68359-1.32617-1.02539-2.42969-1.02539h-.28809c-.60059,0-1.18262.15625-1.74609.46777-.56445.31152-1.03223.79199-1.4043,1.43945-.37207.64844-.55762,1.5-.55762,2.55664v10.2959h-5.04004Z"/><path d="m643.28453,919.22461c-1.82422,0-3.34277-.28809-4.55371-.86426-1.21289-.57617-2.16699-1.44043-2.8623-2.5918l3.52832-2.7002c.47949.71973,1.02539,1.22949,1.6377,1.53027.6123.2998,1.43359.44922,2.46582.44922h.43164c2.68848,0,4.03223-1.58398,4.03223-4.75195v-1.15137c-1.24805,1.48828-2.97559,2.23145-5.18359,2.23145h-.28809c-1.53613,0-2.88672-.37793-4.0498-1.13379-1.16504-.75586-2.07031-1.81152-2.71875-3.16797-.64746-1.35547-.97168-2.93359-.97168-4.73438v-.86328c0-1.80078.32422-3.37793.97168-4.73438.64844-1.35547,1.55371-2.41211,2.71875-3.16797,1.16309-.75586,2.51367-1.13379,4.0498-1.13379h.28809c2.63965,0,4.58398.93555,5.83203,2.80762v-2.26758h4.3916v17.13574c0,2.92773-.76855,5.17773-2.30371,6.75-1.53613,1.57129-3.73242,2.3584-6.58789,2.3584h-.82812Zm.50391-12.16797h.32422c1.15137,0,2.09375-.43262,2.82617-1.2959.73145-.86426,1.09766-1.99219,1.09766-3.38477v-.93555c0-1.3916-.36621-2.52051-1.09766-3.38379-.73242-.86426-1.6748-1.2959-2.82617-1.2959h-.32422c-1.24805,0-2.22656.41309-2.93359,1.24121-.70898.82812-1.0625,1.97461-1.0625,3.43848v.89941c0,1.46484.35352,2.61621,1.0625,3.45605.70703.84082,1.68555,1.26074,2.93359,1.26074Z"/><path d="m667.3314,911.52051v-25.2002h16.74023v4.46387h-11.4834v6.44434h9.25195l-.6123,4.46387h-8.63965v9.82812h-5.25684Z"/><path d="m686.80699,911.52051v-26.28027h5.04004v26.28027h-5.04004Z"/><path d="m704.6273,912.02441c-1.72852,0-3.27637-.36035-4.64453-1.08008-1.36719-.71973-2.44727-1.76953-3.23926-3.15039-.79199-1.37988-1.18848-3.05371-1.18848-5.02148v-1.08008c0-1.99219.39648-3.67188,1.18848-5.04004s1.87207-2.41211,3.23926-3.13184c1.36816-.7207,2.91602-1.08008,4.64453-1.08008h.25195c1.72754,0,3.27539.35938,4.64355,1.08008,1.36816.71973,2.44824,1.76367,3.24023,3.13184s1.18848,3.04785,1.18848,5.04004v1.08008c0,1.96777-.39648,3.6416-1.18848,5.02148-.79199,1.38086-1.87207,2.43066-3.24023,3.15039s-2.91602,1.08008-4.64355,1.08008h-.25195Zm0-4.32031h.25195c1.17578,0,2.1416-.38379,2.89746-1.15137.75684-.76855,1.13477-1.99219,1.13477-3.67285v-1.2959c0-1.67969-.37793-2.90332-1.13477-3.67188-.75586-.76758-1.72168-1.15137-2.89746-1.15137h-.25195c-1.17676,0-2.14258.38379-2.89844,1.15137-.75586.76855-1.13379,1.99219-1.13379,3.67188v1.2959c0,1.68066.37793,2.9043,1.13379,3.67285.75586.76758,1.72168,1.15137,2.89844,1.15137Z"/><path d="m715.57066,892.94434h5.32812l3.09668,12.27637,3.38379-12.27637h4.46387l3.31152,11.98828,3.09668-11.98828h5.00391l-5.68848,18.57617h-4.57129l-3.56445-12.41992-3.59961,12.41992h-4.57227l-5.68848-18.57617Z"/><path d="m752.93882,912.02441c-4.31934,0-7.04395-1.41602-8.17188-4.24805l3.92383-1.98047c.33594.7207.83984,1.25488,1.5127,1.60254.6709.34766,1.5957.52148,2.77148.52148h.46777c2.06445,0,3.09668-.54004,3.09668-1.62012v-.14355c0-.91211-.60059-1.45215-1.80078-1.62012l-3.74316-.50391c-1.82422-.26367-3.22266-.85742-4.19434-1.78223-.97168-.92383-1.45801-2.16504-1.45801-3.72559v-.36035c0-1.77539.67773-3.17383,2.03418-4.19336,1.35547-1.02051,3.16211-1.53027,5.41797-1.53027h.54004c1.87207,0,3.45605.36621,4.75195,1.09766,1.2959.73242,2.23145,1.77051,2.80762,3.11426l-3.99609,1.76367c-.5752-1.24707-1.77637-1.87207-3.59961-1.87207h-.46777c-1.75293,0-2.62793.5166-2.62793,1.54785v.14453c0,.38379.13086.69043.39551.91797.26367.22852.69629.39062,1.2959.48633l3.88867.54004c1.7998.24023,3.18555.87012,4.15723,1.88965.97266,1.02051,1.45801,2.31055,1.45801,3.87012v.35938c0,1.89648-.67188,3.3252-2.01562,4.28418-1.34473.95996-3.3125,1.44043-5.9043,1.44043h-.54004Z"/></g><g><path d="m939.89781,203.16211v-25.2002h10.04395c2.54395,0,4.68555.49219,6.42578,1.47607,1.73926.98438,3.05957,2.36426,3.95996,4.14014.90039,1.77637,1.34961,3.86426,1.34961,6.26416v1.40381c0,3.69629-1.00781,6.60596-3.02344,8.72998s-4.91992,3.18604-8.71191,3.18604h-10.04395Zm5.25586-4.53613h4.64453c2.13477,0,3.77344-.59375,4.91309-1.78174s1.70996-3.01807,1.70996-5.49023v-1.62012c0-2.37598-.57031-4.17578-1.70996-5.3999-1.13965-1.22363-2.77832-1.83594-4.91309-1.83594h-4.64453v16.12793Z"/><path d="m973.4857,203.66602c-2.83203,0-5.0293-.80371-6.58789-2.41211-1.56055-1.60742-2.33984-3.87549-2.33984-6.80371v-1.08008c0-2.92773.79102-5.20752,2.375-6.83984,1.58398-1.63184,3.76758-2.44824,6.55273-2.44824h.28711c2.64062,0,4.69922.79834,6.17383,2.39404,1.47656,1.59619,2.21484,3.79785,2.21484,6.60596v2.26807h-12.63672c.16797,2.85645,1.48828,4.28418,3.96094,4.28418h.50391c1.89551,0,3.22754-.63574,3.99609-1.9082l3.63574,2.41211c-.67285,1.104-1.6748,1.96826-3.00684,2.5918-1.33105.62402-2.86133.93604-4.58984.93604h-.53906Zm-3.92383-11.69971h7.70312v-.1084c0-2.49561-1.16406-3.74365-3.49219-3.74365h-.28711c-2.30469,0-3.61328,1.28418-3.92383,3.85205Z"/><path d="m985.72496,203.16211v-18.57617h4.3916v2.3042c.625-.8877,1.42188-1.57764,2.39453-2.06982.97266-.4917,2.05762-.73828,3.25781-.73828h.36035c2.11133,0,3.78613.6543,5.02246,1.96191,1.23535,1.30859,1.85352,3.17432,1.85352,5.59814v11.52002h-5.04004v-10.83594c0-1.24756-.25879-2.21387-.77441-2.89795s-1.32617-1.02588-2.42969-1.02588h-.28809c-.60059,0-1.18262.15625-1.74609.46777-.56348.31201-1.03223.79199-1.40332,1.43994-.37305.64795-.55859,1.5-.55859,2.55615v10.2959h-5.04004Z"/><path d="m1015.56871,203.66602c-1.72754,0-3.27637-.35986-4.64355-1.08008-1.36816-.71973-2.44824-1.76953-3.24023-3.1499-.79199-1.37988-1.1875-3.05371-1.1875-5.02197v-1.08008c0-1.9917.39551-3.67188,1.1875-5.04004.79199-1.36768,1.87207-2.41162,3.24023-3.13184,1.36719-.72021,2.91602-1.08008,4.64355-1.08008h.25195c1.72754,0,3.27637.35986,4.64355,1.08008,1.36914.72021,2.44922,1.76416,3.24023,3.13184.79297,1.36816,1.18848,3.04834,1.18848,5.04004v1.08008c0,1.96826-.39551,3.64209-1.18848,5.02197-.79102,1.38037-1.87109,2.43018-3.24023,3.1499-1.36719.72021-2.91602,1.08008-4.64355,1.08008h-.25195Zm0-4.31982h.25195c1.17578,0,2.1416-.38379,2.89746-1.15186.75684-.76807,1.13477-1.99219,1.13477-3.67236v-1.2959c0-1.67969-.37793-2.90381-1.13477-3.67188-.75586-.76807-1.72168-1.15186-2.89746-1.15186h-.25195c-1.17676,0-2.1416.38379-2.89746,1.15186s-1.13477,1.99219-1.13477,3.67188v1.2959c0,1.68018.37891,2.9043,1.13477,3.67236s1.7207,1.15186,2.89746,1.15186Z"/><path d="m1028.52867,181.95801v-5.04004h5.18359v5.04004h-5.18359Zm.07129,21.2041v-18.57617h5.04004v18.57617h-5.04004Z"/><path d="m1045.23179,203.66602c-4.32031,0-7.04395-1.41553-8.17188-4.24805l3.92383-1.97998c.33594.72021.83984,1.25439,1.51172,1.60205.67188.34814,1.5957.52197,2.77246.52197h.46777c2.06445,0,3.0957-.54004,3.0957-1.62012v-.14355c0-.91211-.59961-1.45215-1.7998-1.62012l-3.74316-.50391c-1.82422-.26416-3.22266-.85791-4.19531-1.78223-.9707-.92383-1.45703-2.16553-1.45703-3.72607v-.35986c0-1.77588.67773-3.17383,2.0332-4.19385s3.16211-1.53027,5.41797-1.53027h.54102c1.87109,0,3.45508.36621,4.75195,1.09814,1.29492.73242,2.23145,1.77002,2.80762,3.11377l-3.99609,1.76416c-.5752-1.24756-1.77637-1.87207-3.60059-1.87207h-.4668c-1.75293,0-2.62891.5166-2.62891,1.54785v.14404c0,.38428.13184.69043.39648.91797.26367.22852.69531.39062,1.2959.48633l3.8877.54004c1.80078.24023,3.18652.87012,4.1582,1.88965.97266,1.02051,1.45801,2.31055,1.45801,3.87012v.35986c0,1.89648-.67188,3.32471-2.0166,4.28418-1.34375.95947-3.31152,1.43994-5.90332,1.43994h-.54004Z"/><path d="m1056.93199,181.95801v-5.04004h5.18457v5.04004h-5.18457Zm.07129,21.2041v-18.57617h5.04102v18.57617h-5.04102Z"/><path d="m1066.723,203.16211v-18.57617h4.3916v2.3042c.625-.8877,1.42188-1.57764,2.39453-2.06982.97266-.4917,2.05762-.73828,3.25781-.73828h.36035c2.11133,0,3.78613.6543,5.02246,1.96191,1.23535,1.30859,1.85352,3.17432,1.85352,5.59814v11.52002h-5.04004v-10.83594c0-1.24756-.25879-2.21387-.77441-2.89795s-1.32617-1.02588-2.42969-1.02588h-.28809c-.60059,0-1.18262.15625-1.74609.46777-.56348.31201-1.03223.79199-1.40332,1.43994-.37305.64795-.55859,1.5-.55859,2.55615v10.2959h-5.04004Z"/><path d="m1096.02671,210.86621c-1.82422,0-3.3418-.28809-4.55371-.86426-1.21191-.57568-2.16699-1.43994-2.8623-2.5918l3.52832-2.7002c.47949.72021,1.02637,1.22998,1.6377,1.53027.6123.2998,1.43359.44971,2.4668.44971h.43164c2.6875,0,4.03125-1.58398,4.03125-4.75195v-1.15186c-1.24805,1.48828-2.97559,2.23193-5.18359,2.23193h-.28809c-1.53613,0-2.88574-.37793-4.0498-1.13379-1.16406-.75635-2.07031-1.81201-2.71875-3.16797-.64746-1.35596-.9707-2.93408-.9707-4.73438v-.86377c0-1.80029.32324-3.37793.9707-4.73389.64844-1.35596,1.55469-2.41211,2.71875-3.16797,1.16406-.75635,2.51367-1.13428,4.0498-1.13428h.28809c2.63965,0,4.58398.93604,5.83203,2.80811v-2.26807h4.39258v17.13623c0,2.92773-.76953,5.17773-2.30469,6.75-1.53613,1.57129-3.73242,2.35791-6.58789,2.35791h-.82812Zm.50391-12.16797h.32422c1.15234,0,2.09375-.43213,2.82617-1.2959.73145-.86426,1.09766-1.99219,1.09766-3.38428v-.93604c0-1.3916-.36621-2.52002-1.09766-3.38379-.73242-.86426-1.67383-1.2959-2.82617-1.2959h-.32422c-1.24805,0-2.22656.41357-2.93359,1.2417-.70898.82812-1.0625,1.97461-1.0625,3.43799v.8999c0,1.46436.35352,2.61621,1.0625,3.45605.70703.84033,1.68555,1.26025,2.93359,1.26025Z"/><path d="m947.04234,246.36231v-25.2002h10.04492c2.54297,0,4.68555.49219,6.42578,1.47607,1.74023.98438,3.06055,2.36426,3.95996,4.14014.89941,1.77637,1.35059,3.86426,1.35059,6.26416v1.40381c0,3.69629-1.00879,6.60596-3.02441,8.72998-2.0166,2.12402-4.9209,3.18604-8.71191,3.18604h-10.04492Zm5.25684-4.53613h4.64355c2.13672,0,3.77344-.59375,4.91406-1.78174,1.13965-1.18799,1.71094-3.01807,1.71094-5.49023v-1.62012c0-2.37598-.57129-4.17578-1.71094-5.3999-1.14062-1.22363-2.77734-1.83594-4.91406-1.83594h-4.64355v16.12793Z"/><path d="m972.96226,225.1582v-5.04004h5.18457v5.04004h-5.18457Zm.07227,21.2041v-18.57617h5.04004v18.57617h-5.04004Z"/><path d="m984.84312,246.36231v-14.36377h-3.70898v-4.2124h3.70898v-.79199c0-2.30371.5752-4.06787,1.72656-5.29199,1.15234-1.22363,3.07227-1.83594,5.76074-1.83594h3.2041v4.24805h-3.02344c-.93652,0-1.60938.23389-2.0166.70215-.40918.46777-.6123,1.13379-.6123,1.99805v.97168h5.65234l-.6123,4.2124h-5.04004v14.36377h-5.03906Zm12.95898,0v-14.36377h-3.70703v-4.2124h3.70703v-.79199c0-2.30371.57617-4.06787,1.72852-5.29199,1.15234-1.22363,3.07227-1.83594,5.75977-1.83594h3.2041v4.24805h-3.02441c-.93555,0-1.60742.23389-2.01562.70215-.4082.46777-.61133,1.13379-.61133,1.99805v.97168h5.65137l-.6123,4.2124h-5.03906v14.36377h-5.04102Z"/><path d="m1017.49449,246.86621c-2.04004,0-3.66016-.65332-4.86035-1.96191-1.2002-1.30762-1.7998-3.17383-1.7998-5.59814v-11.52002h5.04004v10.83594c0,1.24854.24023,2.21436.71973,2.89844.47949.68359,1.23535,1.02588,2.26855,1.02588h.28711c.57617,0,1.12891-.15576,1.65625-.46826.52734-.31152.9668-.79736,1.31445-1.45801.34766-.65967.52148-1.50586.52148-2.5376v-10.29639h5.04102v18.57617h-4.39258v-2.3042c-.59961.9126-1.36816,1.6084-2.30469,2.08838-.93555.47949-1.97949.71973-3.13086.71973h-.36035Z"/><path d="m1038.91343,246.86621c-4.31934,0-7.04297-1.41553-8.17188-4.24805l3.92383-1.97998c.33594.72021.83984,1.25439,1.5127,1.60205.6709.34814,1.5957.52197,2.77246.52197h.4668c2.06445,0,3.09668-.54004,3.09668-1.62012v-.14355c0-.91211-.60059-1.45215-1.7998-1.62012l-3.74414-.50391c-1.82422-.26416-3.22266-.85791-4.19434-1.78223-.97168-.92383-1.45801-2.16553-1.45801-3.72607v-.35986c0-1.77588.67773-3.17383,2.03418-4.19385,1.35547-1.02002,3.16211-1.53027,5.41797-1.53027h.54004c1.87207,0,3.45605.36621,4.75195,1.09814,1.2959.73242,2.23242,1.77002,2.80859,3.11377l-3.99609,1.76416c-.57617-1.24756-1.77734-1.87207-3.60059-1.87207h-.46777c-1.75195,0-2.62793.5166-2.62793,1.54785v.14404c0,.38428.13184.69043.39551.91797.26367.22852.69629.39062,1.29688.48633l3.8877.54004c1.7998.24023,3.18652.87012,4.15723,1.88965.97266,1.02051,1.45898,2.31055,1.45898,3.87012v.35986c0,1.89648-.67188,3.32471-2.0166,4.28418s-3.31152,1.43994-5.90332,1.43994h-.54102Z"/><path d="m1050.6146,225.1582v-5.04004h5.18359v5.04004h-5.18359Zm.07129,21.2041v-18.57617h5.04004v18.57617h-5.04004Z"/><path d="m1068.50523,246.86621c-1.72754,0-3.27539-.35986-4.64355-1.08008-1.36816-.71973-2.44824-1.76953-3.23926-3.1499-.79297-1.37988-1.18848-3.05371-1.18848-5.02197v-1.08008c0-1.9917.39551-3.67188,1.18848-5.04004.79102-1.36768,1.87109-2.41162,3.23926-3.13184s2.91602-1.08008,4.64355-1.08008h.25195c1.72852,0,3.27637.35986,4.64453,1.08008s2.44824,1.76416,3.24023,3.13184c.79199,1.36816,1.1875,3.04834,1.1875,5.04004v1.08008c0,1.96826-.39551,3.64209-1.1875,5.02197-.79199,1.38037-1.87207,2.43018-3.24023,3.1499-1.36816.72021-2.91602,1.08008-4.64453,1.08008h-.25195Zm0-4.31982h.25195c1.17578,0,2.14258-.38379,2.89844-1.15186s1.13477-1.99219,1.13477-3.67236v-1.2959c0-1.67969-.37891-2.90381-1.13477-3.67188s-1.72266-1.15186-2.89844-1.15186h-.25195c-1.17578,0-2.1416.38379-2.89746,1.15186s-1.13379,1.99219-1.13379,3.67188v1.2959c0,1.68018.37793,2.9043,1.13379,3.67236s1.72168,1.15186,2.89746,1.15186Z"/><path d="m1081.53648,246.36231v-18.57617h4.39258v2.3042c.62402-.8877,1.42188-1.57764,2.39453-2.06982.97168-.4917,2.05664-.73828,3.25781-.73828h.35938c2.11133,0,3.78613.6543,5.02246,1.96191,1.23535,1.30859,1.85449,3.17432,1.85449,5.59814v11.52002h-5.04102v-10.83594c0-1.24756-.25781-2.21387-.77344-2.89795-.5166-.68408-1.32617-1.02588-2.42969-1.02588h-.28906c-.59961,0-1.18164.15625-1.74609.46777-.56348.31201-1.03125.79199-1.40332,1.43994s-.55762,1.5-.55762,2.55615v10.2959h-5.04102Z"/><path d="m967.49058,289.56201v-25.2002h6.55176l7.20117,18.25195,7.19922-18.25195h6.37207v25.2002h-5.00391v-16.99219l-6.76855,16.99219h-3.7793l-6.76758-16.99219v16.99219h-5.00488Z"/><path d="m1008.24253,290.06592c-1.72754,0-3.27637-.35986-4.64355-1.08008-1.36816-.71973-2.44824-1.76953-3.24023-3.1499-.79199-1.37988-1.1875-3.05371-1.1875-5.02197v-1.08008c0-1.9917.39551-3.67188,1.1875-5.04004.79199-1.36768,1.87207-2.41162,3.24023-3.13184,1.36719-.72021,2.91602-1.08008,4.64355-1.08008h.25195c1.72754,0,3.27637.35986,4.64355,1.08008,1.36914.72021,2.44922,1.76416,3.24023,3.13184.79297,1.36816,1.18848,3.04834,1.18848,5.04004v1.08008c0,1.96826-.39551,3.64209-1.18848,5.02197-.79102,1.38037-1.87109,2.43018-3.24023,3.1499-1.36719.72021-2.91602,1.08008-4.64355,1.08008h-.25195Zm0-4.31982h.25195c1.17578,0,2.1416-.38379,2.89746-1.15186.75684-.76807,1.13477-1.99219,1.13477-3.67236v-1.2959c0-1.67969-.37793-2.90381-1.13477-3.67188-.75586-.76807-1.72168-1.15186-2.89746-1.15186h-.25195c-1.17676,0-2.1416.38379-2.89746,1.15186s-1.13477,1.99219-1.13477,3.67188v1.2959c0,1.68018.37891,2.9043,1.13477,3.67236s1.7207,1.15186,2.89746,1.15186Z"/><path d="m1028.04234,290.06592c-1.48828,0-2.82031-.35449-3.99609-1.06201s-2.09473-1.75781-2.75391-3.1499c-.66016-1.3916-.99023-3.0835-.99023-5.07617v-1.07959c0-1.99219.33008-3.67236.99023-5.04004.65918-1.36816,1.57812-2.40576,2.75391-3.11426,1.17578-.70752,2.50781-1.06201,3.99609-1.06201h.25195c2.23145,0,3.97168.74414,5.21973,2.23193v-9.43164h5.04004v26.27979h-4.39258v-2.3042c-1.27148,1.87207-3.22754,2.80811-5.86719,2.80811h-.25195Zm1.33203-4.31982h.28711c.64844,0,1.27246-.16211,1.87305-.48584.59961-.32422,1.0918-.84619,1.47559-1.56641.38379-.71973.5752-1.66748.5752-2.84375v-1.15186c0-1.17578-.19727-2.12402-.59375-2.84424-.39551-.72021-.89453-1.24219-1.49414-1.56592-.59961-.32422-1.21094-.48584-1.83594-.48584h-.28711c-1.15234,0-2.11328.38379-2.88086,1.15186s-1.15137,2.00391-1.15137,3.70801v1.18799c0,1.7041.38379,2.94629,1.15137,3.72607s1.72852,1.16992,2.88086,1.16992Z"/><path d="m1051.18882,290.06592c-2.83203,0-5.02734-.80371-6.58789-2.41211-1.56055-1.60742-2.33984-3.87549-2.33984-6.80371v-1.08008c0-2.92773.79297-5.20752,2.37695-6.83984,1.58398-1.63184,3.76758-2.44824,6.55078-2.44824h.28906c2.63867,0,4.69727.79834,6.17383,2.39404,1.47559,1.59619,2.21387,3.79785,2.21387,6.60596v2.26807h-12.63574c.16699,2.85645,1.4873,4.28418,3.95898,4.28418h.50391c1.89648,0,3.22852-.63574,3.99609-1.9082l3.63672,2.41211c-.67188,1.104-1.67383,1.96826-3.00586,2.5918-1.33203.62402-2.8623.93604-4.58984.93604h-.54102Zm-3.92383-11.69971h7.70508v-.1084c0-2.49561-1.16504-3.74365-3.49219-3.74365h-.28906c-2.30273,0-3.61133,1.28418-3.92383,3.85205Z"/><path d="m1063.42906,289.56201v-26.27979h5.04004v26.27979h-5.04004Z"/><path d="m1080.05992,290.06592c-4.31934,0-7.04297-1.41553-8.17188-4.24805l3.92383-1.97998c.33594.72021.83984,1.25439,1.5127,1.60205.6709.34814,1.5957.52197,2.77246.52197h.4668c2.06445,0,3.09668-.54004,3.09668-1.62012v-.14355c0-.91211-.60059-1.45215-1.7998-1.62012l-3.74414-.50391c-1.82422-.26416-3.22266-.85791-4.19434-1.78223-.97168-.92383-1.45801-2.16553-1.45801-3.72607v-.35986c0-1.77588.67773-3.17383,2.03418-4.19385,1.35547-1.02002,3.16211-1.53027,5.41797-1.53027h.54004c1.87207,0,3.45605.36621,4.75195,1.09814,1.2959.73242,2.23242,1.77002,2.80859,3.11377l-3.99609,1.76416c-.57617-1.24756-1.77734-1.87207-3.60059-1.87207h-.46777c-1.75195,0-2.62793.5166-2.62793,1.54785v.14404c0,.38428.13184.69043.39551.91797.26367.22852.69629.39062,1.29688.48633l3.8877.54004c1.7998.24023,3.18652.87012,4.15723,1.88965.97266,1.02051,1.45898,2.31055,1.45898,3.87012v.35986c0,1.89648-.67188,3.32471-2.0166,4.28418s-3.31152,1.43994-5.90332,1.43994h-.54102Z"/></g><g><path d="m69.40855,201.93066c-7.99219,0-11.98828-4.104-11.98828-12.31201v-1.40381c0-2.61572.46191-4.854,1.38574-6.71387s2.25-3.28809,3.97852-4.28418c1.72754-.99561,3.80371-1.49414,6.22754-1.49414h.32422c2.42383,0,4.46973.52197,6.1377,1.56592s2.87402,2.53809,3.61816,4.48242l-4.82324,1.69189c-.67285-2.08789-2.3291-3.13232-4.96875-3.13232h-.25195c-2.06445,0-3.6416.66602-4.7334,1.99805-1.09277,1.33203-1.63867,3.27051-1.63867,5.81396v1.62012c0,2.59229.54004,4.5,1.62012,5.72412s2.77246,1.83594,5.07617,1.83594h.21582c.93652,0,1.82422-.07178,2.66406-.21582s1.57129-.36035,2.19629-.64795v-4.64404h-5.40039l.6123-4.39209h9.82812v11.5918c-1.22461.96045-2.67676,1.68652-4.35645,2.17822s-3.49219.73779-5.43555.73779h-.28809Z"/><path d="m91.90855,201.93066c-2.83203,0-5.02832-.80371-6.58789-2.41211-1.56055-1.60742-2.33984-3.87549-2.33984-6.80371v-1.08008c0-2.92773.79199-5.20752,2.37598-6.83984,1.58398-1.63184,3.76758-2.44824,6.55176-2.44824h.28809c2.63965,0,4.69824.79834,6.17383,2.39404,1.47559,1.59619,2.21387,3.79785,2.21387,6.60596v2.26807h-12.63574c.16699,2.85645,1.4873,4.28418,3.95996,4.28418h.50391c1.89551,0,3.22754-.63574,3.99609-1.9082l3.63574,2.41211c-.67188,1.104-1.67383,1.96826-3.00586,2.5918-1.33203.62402-2.8623.93604-4.58984.93604h-.54004Zm-3.92383-11.69971h7.7041v-.1084c0-2.49561-1.16504-3.74365-3.49219-3.74365h-.28809c-2.30371,0-3.6123,1.28418-3.92383,3.85205Z"/><path d="m104.14781,201.42676v-18.57617h4.39258v2.3042c.62402-.8877,1.42188-1.57764,2.39355-2.06982.97266-.4917,2.05762-.73828,3.25781-.73828h.36035c2.11133,0,3.78613.6543,5.02246,1.96191,1.23535,1.30859,1.85352,3.17432,1.85352,5.59814v11.52002h-5.04004v-10.83594c0-1.24756-.25781-2.21387-.77344-2.89795-.5166-.68408-1.32715-1.02588-2.43066-1.02588h-.28809c-.59961,0-1.18164.15625-1.74609.46777-.56348.31201-1.03223.79199-1.40332,1.43994-.37305.64795-.55859,1.5-.55859,2.55615v10.2959h-5.04004Z"/><path d="m133.848,201.93066c-2.83203,0-5.02832-.80371-6.58789-2.41211-1.56055-1.60742-2.33984-3.87549-2.33984-6.80371v-1.08008c0-2.92773.79199-5.20752,2.37598-6.83984,1.58398-1.63184,3.76758-2.44824,6.55176-2.44824h.28809c2.63965,0,4.69824.79834,6.17383,2.39404,1.47559,1.59619,2.21387,3.79785,2.21387,6.60596v2.26807h-12.63574c.16699,2.85645,1.4873,4.28418,3.95996,4.28418h.50391c1.89551,0,3.22754-.63574,3.99609-1.9082l3.63574,2.41211c-.67188,1.104-1.67383,1.96826-3.00586,2.5918-1.33203.62402-2.8623.93604-4.58984.93604h-.54004Zm-3.92383-11.69971h7.7041v-.1084c0-2.49561-1.16504-3.74365-3.49219-3.74365h-.28809c-2.30371,0-3.6123,1.28418-3.92383,3.85205Z"/><path d="m146.08726,201.42676v-18.57617h4.3916v3.16797c.50391-1.07959,1.13965-1.91357,1.9082-2.50195.76758-.58789,1.81152-.88184,3.13184-.88184h1.98047v4.64404h-1.7998c-.7207,0-1.42871.14404-2.12402.43213-.69629.2876-1.27832.78613-1.74609,1.49365-.46875.7085-.70215,1.68652-.70215,2.93408v9.28809h-5.04004Z"/><path d="m165.49156,201.93066c-1.99316,0-3.53418-.49219-4.62598-1.47607-1.09277-.98389-1.63867-2.36328-1.63867-4.13965,0-1.63184.49805-2.93994,1.49414-3.92432.99609-.98389,2.44238-1.5957,4.33789-1.83594l5.83203-.75586v-.14404c0-2.18359-.99609-3.27588-2.9873-3.27588h-.36035c-.88867,0-1.63281.16162-2.23242.48584s-1.10352.89453-1.51172,1.70996l-3.85156-2.01611c.55176-1.27148,1.48145-2.2915,2.79004-3.06006,1.30762-.76758,2.89746-1.15186,4.76953-1.15186h.54004c5.25586,0,7.88379,2.46045,7.88379,7.37988v11.7002h-4.3916v-2.33984c-.57617.88818-1.37402,1.58398-2.39453,2.08789s-2.17773.75586-3.47363.75586h-.17969Zm5.39941-8.74805l-3.85156.54004c-1.10449.16846-1.87207.40234-2.30371.70215-.43262.30029-.64844.78613-.64844,1.45801,0,.64795.24609,1.1582.73828,1.52979.49121.37256,1.14551.55811,1.96191.55811h.28809c1.19922,0,2.13574-.34766,2.80762-1.04395.67188-.6958,1.00781-1.64355,1.00781-2.84424v-.8999Z"/><path d="m188.78257,201.64258c-2.56836,0-4.38574-.55176-5.4541-1.65576-1.06836-1.10352-1.60156-2.74805-1.60156-4.93213v-7.9917h-3.8877v-4.2124h3.8877v-5.29199h5.04004v5.29199h5.72363l-.6123,4.2124h-5.11133v7.81201c0,.88818.22168,1.52979.66602,1.92578.44336.396,1.0498.59375,1.81738.59375h3.24023v4.24805h-3.70801Z"/><path d="m195.9105,180.22266v-5.04004h5.18457v5.04004h-5.18457Zm.07227,21.2041v-18.57617h5.04004v18.57617h-5.04004Z"/><path d="m210.74253,201.42676l-6.98438-18.57617h5.32812l3.99609,12.42041,4.10449-12.42041h5.00391l-6.98438,18.57617h-4.46387Z"/><path d="m231.8021,201.93066c-2.83203,0-5.02832-.80371-6.58789-2.41211-1.56055-1.60742-2.33984-3.87549-2.33984-6.80371v-1.08008c0-2.92773.79199-5.20752,2.37598-6.83984,1.58398-1.63184,3.76758-2.44824,6.55176-2.44824h.28809c2.63965,0,4.69824.79834,6.17383,2.39404,1.47656,1.59619,2.21484,3.79785,2.21484,6.60596v2.26807h-12.63672c.16797,2.85645,1.48828,4.28418,3.95996,4.28418h.50391c1.89648,0,3.22852-.63574,3.99609-1.9082l3.63672,2.41211c-.67285,1.104-1.6748,1.96826-3.00684,2.5918-1.33105.62402-2.86133.93604-4.58984.93604h-.54004Zm-3.92383-11.69971h7.7041v-.1084c0-2.49561-1.16406-3.74365-3.49219-3.74365h-.28809c-2.30371,0-3.6123,1.28418-3.92383,3.85205Z"/><path d="m52.47105,244.62695l9.71973-25.2002h4.71582l9.75586,25.2002h-5.6875l-1.7998-5.07617h-9.54004l-1.80078,5.07617h-5.36328Zm8.71191-9.396h6.44336l-3.2041-9.03613-3.23926,9.03613Z"/><path d="m86.20249,245.13086c-1.48828,0-2.82031-.35449-3.99609-1.06201s-2.09375-1.75781-2.75391-3.1499c-.66016-1.3916-.98926-3.0835-.98926-5.07617v-1.07959c0-1.99219.3291-3.67236.98926-5.04004.66016-1.36816,1.57812-2.40576,2.75391-3.11426,1.17578-.70752,2.50781-1.06201,3.99609-1.06201h.25195c2.23242,0,3.97266.74414,5.2207,2.23193v-9.43164h5.04004v26.27979h-4.39258v-2.3042c-1.27246,1.87207-3.22754,2.80811-5.86816,2.80811h-.25195Zm1.33203-4.31982h.28809c.64844,0,1.27246-.16211,1.87207-.48584.59961-.32422,1.0918-.84619,1.47656-1.56641.38281-.71973.5752-1.66748.5752-2.84375v-1.15186c0-1.17578-.19727-2.12402-.59375-2.84424-.39551-.72021-.89453-1.24219-1.49414-1.56592-.59961-.32422-1.21191-.48584-1.83594-.48584h-.28809c-1.15137,0-2.1123.38379-2.87988,1.15186-.76855.76807-1.15137,2.00391-1.15137,3.70801v1.18799c0,1.7041.38281,2.94629,1.15137,3.72607.76758.77979,1.72852,1.16992,2.87988,1.16992Z"/><path d="m106.43394,244.62695l-6.9834-18.57617h5.32812l3.99609,12.42041,4.10352-12.42041h5.00391l-6.9834,18.57617h-4.46484Z"/><path d="m127.49351,245.13086c-2.83203,0-5.02832-.80371-6.58789-2.41211-1.56055-1.60742-2.33984-3.87549-2.33984-6.80371v-1.08008c0-2.92773.79199-5.20752,2.37598-6.83984,1.58398-1.63184,3.76758-2.44824,6.55176-2.44824h.28809c2.63965,0,4.69824.79834,6.17383,2.39404,1.47656,1.59619,2.21484,3.79785,2.21484,6.60596v2.26807h-12.63672c.16797,2.85645,1.48828,4.28418,3.95996,4.28418h.50391c1.89648,0,3.22852-.63574,3.99609-1.9082l3.63672,2.41211c-.67285,1.104-1.6748,1.96826-3.00684,2.5918-1.33105.62402-2.86133.93604-4.58984.93604h-.54004Zm-3.92383-11.69971h7.7041v-.1084c0-2.49561-1.16406-3.74365-3.49219-3.74365h-.28809c-2.30371,0-3.6123,1.28418-3.92383,3.85205Z"/><path d="m139.73374,244.62695v-18.57617h4.3916v3.16797c.50391-1.07959,1.13965-1.91357,1.9082-2.50195.76758-.58789,1.81152-.88184,3.13184-.88184h1.98047v4.64404h-1.7998c-.7207,0-1.42871.14404-2.12402.43213-.69629.2876-1.27832.78613-1.74609,1.49365-.46875.7085-.70215,1.68652-.70215,2.93408v9.28809h-5.04004Z"/><path d="m161.04527,245.13086c-4.31934,0-7.04395-1.41553-8.17188-4.24805l3.92383-1.97998c.33594.72021.83984,1.25439,1.5127,1.60205.6709.34814,1.5957.52197,2.77148.52197h.46777c2.06445,0,3.09668-.54004,3.09668-1.62012v-.14355c0-.91211-.60059-1.45215-1.80078-1.62012l-3.74316-.50391c-1.82422-.26416-3.22266-.85791-4.19434-1.78223-.97168-.92383-1.45801-2.16553-1.45801-3.72607v-.35986c0-1.77588.67773-3.17383,2.03418-4.19385,1.35547-1.02002,3.16211-1.53027,5.41797-1.53027h.54004c1.87207,0,3.45605.36621,4.75195,1.09814,1.2959.73242,2.23145,1.77002,2.80762,3.11377l-3.99609,1.76416c-.5752-1.24756-1.77637-1.87207-3.59961-1.87207h-.46777c-1.75293,0-2.62793.5166-2.62793,1.54785v.14404c0,.38428.13086.69043.39551.91797.26367.22852.69629.39062,1.2959.48633l3.88867.54004c1.7998.24023,3.18555.87012,4.15723,1.88965.97266,1.02051,1.45801,2.31055,1.45801,3.87012v.35986c0,1.89648-.67188,3.32471-2.01562,4.28418-1.34473.95947-3.3125,1.43994-5.9043,1.43994h-.54004Z"/><path d="m178.18101,245.13086c-1.99219,0-3.53418-.49219-4.62598-1.47607s-1.6377-2.36328-1.6377-4.13965c0-1.63184.49805-2.93994,1.49414-3.92432.99512-.98389,2.44141-1.5957,4.33789-1.83594l5.83203-.75586v-.14404c0-2.18359-.99609-3.27588-2.98828-3.27588h-.36035c-.8877,0-1.63184.16162-2.23145.48584-.60059.32422-1.10449.89453-1.51172,1.70996l-3.85254-2.01611c.55176-1.27148,1.48145-2.2915,2.79004-3.06006,1.30762-.76758,2.89844-1.15186,4.77051-1.15186h.53906c5.25684,0,7.88477,2.46045,7.88477,7.37988v11.7002h-4.39258v-2.33984c-.57617.88818-1.37402,1.58398-2.39355,2.08789-1.02051.50391-2.17773.75586-3.47461.75586h-.17969Zm5.40039-8.74805l-3.85254.54004c-1.10352.16846-1.87207.40234-2.30371.70215-.43164.30029-.64844.78613-.64844,1.45801,0,.64795.24609,1.1582.73828,1.52979.49219.37256,1.14551.55811,1.96191.55811h.28809c1.2002,0,2.13574-.34766,2.80859-1.04395.6709-.6958,1.00781-1.64355,1.00781-2.84424v-.8999Z"/><path d="m193.08433,244.62695v-18.57617h4.39258v3.16797c.50391-1.07959,1.13965-1.91357,1.9082-2.50195.76758-.58789,1.81152-.88184,3.13184-.88184h1.97949v4.64404h-1.7998c-.71973,0-1.42773.14404-2.12402.43213-.69629.2876-1.27832.78613-1.74609,1.49365-.46777.7085-.70215,1.68652-.70215,2.93408v9.28809h-5.04004Z"/><path d="m207.77281,223.42285v-5.04004h5.18359v5.04004h-5.18359Zm.07129,21.2041v-18.57617h5.04004v18.57617h-5.04004Z"/><path d="m222.92808,245.13086c-1.99219,0-3.53418-.49219-4.62598-1.47607s-1.6377-2.36328-1.6377-4.13965c0-1.63184.49805-2.93994,1.49414-3.92432.99512-.98389,2.44141-1.5957,4.33789-1.83594l5.83203-.75586v-.14404c0-2.18359-.99609-3.27588-2.98828-3.27588h-.36035c-.8877,0-1.63184.16162-2.23145.48584-.60059.32422-1.10449.89453-1.51172,1.70996l-3.85254-2.01611c.55176-1.27148,1.48145-2.2915,2.79004-3.06006,1.30762-.76758,2.89844-1.15186,4.77051-1.15186h.53906c5.25684,0,7.88477,2.46045,7.88477,7.37988v11.7002h-4.39258v-2.33984c-.57617.88818-1.37402,1.58398-2.39355,2.08789-1.02051.50391-2.17773.75586-3.47461.75586h-.17969Zm5.40039-8.74805l-3.85254.54004c-1.10352.16846-1.87207.40234-2.30371.70215-.43164.30029-.64844.78613-.64844,1.45801,0,.64795.24609,1.1582.73828,1.52979.49219.37256,1.14551.55811,1.96191.55811h.28809c1.2002,0,2.13574-.34766,2.80859-1.04395.6709-.6958,1.00781-1.64355,1.00781-2.84424v-.8999Z"/><path d="m237.8314,244.62695v-26.27979h5.04004v26.27979h-5.04004Z"/><path d="m72.41343,287.82666v-25.2002h4.68066l11.41211,16.45215v-16.45215h5.00391v25.2002h-4.68066l-11.41113-16.45215v16.45215h-5.00488Z"/><path d="m106.79332,288.33057c-2.83203,0-5.02832-.80371-6.58789-2.41211-1.56055-1.60742-2.33984-3.87549-2.33984-6.80371v-1.08008c0-2.92773.79199-5.20752,2.37598-6.83984,1.58398-1.63184,3.76758-2.44824,6.55176-2.44824h.28809c2.63965,0,4.69824.79834,6.17383,2.39404,1.47656,1.59619,2.21484,3.79785,2.21484,6.60596v2.26807h-12.63672c.16797,2.85645,1.48828,4.28418,3.95996,4.28418h.50391c1.89648,0,3.22852-.63574,3.99609-1.9082l3.63672,2.41211c-.67285,1.104-1.6748,1.96826-3.00684,2.5918-1.33105.62402-2.86133.93604-4.58984.93604h-.54004Zm-3.92383-11.69971h7.7041v-.1084c0-2.49561-1.16406-3.74365-3.49219-3.74365h-.28809c-2.30371,0-3.6123,1.28418-3.92383,3.85205Z"/><path d="m128.32164,288.04248c-2.56836,0-4.38672-.55176-5.4541-1.65576-1.06836-1.10352-1.60254-2.74805-1.60254-4.93213v-7.9917h-3.8877v-4.2124h3.8877v-5.29199h5.04004v5.29199h5.72461l-.6123,4.2124h-5.1123v7.81201c0,.88818.22168,1.52979.66602,1.92578s1.0498.59375,1.81836.59375h3.24023v4.24805h-3.70801Z"/><path d="m134.33335,269.25049h5.32812l3.0957,12.27637,3.38379-12.27637h4.46387l3.3125,11.98828,3.0957-11.98828h5.00391l-5.6875,18.57617h-4.57227l-3.56348-12.41992-3.60059,12.41992h-4.57227l-5.6875-18.57617Z"/><path d="m172.34898,288.33057c-1.72754,0-3.27539-.35986-4.64355-1.08008-1.36816-.71973-2.44824-1.76953-3.24023-3.1499-.79199-1.37988-1.1875-3.05371-1.1875-5.02197v-1.08008c0-1.9917.39551-3.67188,1.1875-5.04004.79199-1.36768,1.87207-2.41162,3.24023-3.13184s2.91602-1.08008,4.64355-1.08008h.25195c1.72852,0,3.27637.35986,4.64453,1.08008s2.44824,1.76416,3.24023,3.13184c.79199,1.36816,1.1875,3.04834,1.1875,5.04004v1.08008c0,1.96826-.39551,3.64209-1.1875,5.02197-.79199,1.38037-1.87207,2.43018-3.24023,3.1499-1.36816.72021-2.91602,1.08008-4.64453,1.08008h-.25195Zm0-4.31982h.25195c1.17578,0,2.14258-.38379,2.89844-1.15186s1.13379-1.99219,1.13379-3.67236v-1.2959c0-1.67969-.37793-2.90381-1.13379-3.67188s-1.72266-1.15186-2.89844-1.15186h-.25195c-1.17578,0-2.1416.38379-2.89746,1.15186s-1.13379,1.99219-1.13379,3.67188v1.2959c0,1.68018.37793,2.9043,1.13379,3.67236s1.72168,1.15186,2.89746,1.15186Z"/><path d="m185.38121,287.82666v-18.57617h4.3916v3.16797c.50391-1.07959,1.13965-1.91357,1.9082-2.50195.76758-.58789,1.81152-.88184,3.13184-.88184h1.98047v4.64404h-1.7998c-.7207,0-1.42871.14404-2.12402.43213-.69629.2876-1.27832.78613-1.74609,1.49365-.46875.7085-.70215,1.68652-.70215,2.93408v9.28809h-5.04004Z"/><path d="m200.13999,287.82666v-26.27979h5.04004v14.29199l6.69629-6.58838h6.19238l-7.34473,7.02002,7.88477,11.55615h-6.04883l-5.43555-8.35205-1.94434,1.87207v6.47998h-5.04004Z"/><path d="m227.39292,288.33057c-4.32031,0-7.04395-1.41553-8.17188-4.24805l3.92383-1.97998c.33594.72021.83984,1.25439,1.51172,1.60205.67188.34814,1.5957.52197,2.77246.52197h.46777c2.06348,0,3.0957-.54004,3.0957-1.62012v-.14355c0-.91211-.59961-1.45215-1.7998-1.62012l-3.74414-.50391c-1.82422-.26416-3.22168-.85791-4.19434-1.78223-.97168-.92383-1.45801-2.16553-1.45801-3.72607v-.35986c0-1.77588.67871-3.17383,2.03418-4.19385s3.16211-1.53027,5.41797-1.53027h.54004c1.87207,0,3.45605.36621,4.75195,1.09814,1.2959.73242,2.23242,1.77002,2.80859,3.11377l-3.99609,1.76416c-.57617-1.24756-1.77637-1.87207-3.60059-1.87207h-.46777c-1.75195,0-2.62793.5166-2.62793,1.54785v.14404c0,.38428.13184.69043.39648.91797.26367.22852.69531.39062,1.2959.48633l3.8877.54004c1.7998.24023,3.18652.87012,4.1582,1.88965.97168,1.02051,1.45801,2.31055,1.45801,3.87012v.35986c0,1.89648-.67188,3.32471-2.0166,4.28418-1.34375.95947-3.31152,1.43994-5.90332,1.43994h-.54004Z"/></g><path class="cls-3" d="m1016.00485,700.1008c.27612-.42554.55591-.84857.82886-1.27631.41528-.65228.82031-1.30975,1.22754-1.96613.52026-.83624,1.04004-1.67279,1.54858-2.51715.15161-.2525.29907-.50702.44946-.76013,16.77515-28.13385,26.8877-60.69507,28.17334-95.51575.01318-.3432.02759-.68616.03906-1.02948.03369-1.05695.05664-2.11639.07397-3.17737.01343-.76031.02417-1.52069.02881-2.28143.00195-.3598.01367-.71722.01367-1.07751,0-.35773-.01294-.71271-.01514-1.07001-.00562-1.27942-.02441-2.55902-.0542-3.83899-.00415-.1568-.00708-.3139-.01172-.47064-.97461-37.96057-12.65649-76.07349-35.93018-109.59723l-234.53296-337.82208c-14.16943-23.19409-33.27466-43.88983-57.03589-60.38605-34.55469-23.98969-73.98535-35.66998-113.09912-35.99554-.68091-.00812-1.36206-.00024-2.04321-.00146-.68115.00122-1.36255-.00665-2.04321.00146-39.11377.32556-78.54443,12.00592-113.09924,35.99554-23.76111,16.49622-42.86633,37.19196-57.03577,60.38605l-233.10889,335.77087c-14.02271,19.63318-24.60669,41.88831-30.88257,65.88702-.00781.0296-.01636.05902-.02393.08856-.34668,1.32812-.67456,2.66357-.99463,4.0022-.07373.30804-.15308.61523-.22534.92346-.25391,1.08441-.4906,2.17523-.72681,3.26636-.12256.56433-.25098,1.12781-.36865,1.69281-.18188.87677-.34937,1.75867-.51978,2.63953-.1521.78333-.30786,1.56616-.45044,2.35059-.12817.70697-.24451,1.41785-.36523,2.12738-.16455.96497-.32959,1.92981-.47986,2.89606-.08936.57599-.16956,1.15485-.25403,1.73242-.16187,1.10345-.32031,2.20721-.4635,3.31201-.06287.48547-.11877.97314-.1781,1.45972-.14648,1.19849-.28638,2.39716-.41113,3.5968-.04517.43616-.08521.87384-.12769,1.31085-.12158,1.24762-.23438,2.49536-.33252,3.74371-.03345.4267-.06274.85443-.09351,1.28186-.09009,1.24835-.17065,2.4967-.23743,3.74536-.02502.46558-.04651.93201-.06824,1.39844-.05518,1.18665-.10107,2.37311-.13525,3.55963-.0166.5661-.03015,1.13281-.04199,1.70007-.02124,1.039-.03442,2.07758-.03955,3.11621-.00232.39966-.01514.79688-.01514,1.19708,0,.35876.01172.71466.01367,1.07294.00476.7641.0155,1.52789.02893,2.29163.01733,1.05774.04016,2.11395.07373,3.16766.0116.34674.02625.69324.03955,1.03986,1.2865,34.8172,11.39807,67.37518,28.17151,95.50671.15112.25439.29932.51007.45166.76385.50781.84314,1.02661,1.67859,1.54639,2.51361.40796.65753.81348,1.3161,1.22949,1.96954.27197.42609.55066.84741.82581,1.2713.66882,1.03333,1.34265,2.0639,2.03149,3.08643.02161.03192.0437.06335.06531.09528,7.92505,11.74786,17.17358,22.76959,27.70703,32.8291.1189.11383.23486.23053.354.34412.46985.44647.95068.88434,1.42554,1.32697.82043.76691,1.6416,1.53308,2.47461,2.28638.05774.05194.1167.10291.17456.15479,26.97925,24.33643,60.56836,41.47699,97.75,48.41797.24438.04572.48804.09552.73242.14032,1.14966.21021,2.30518.40375,3.46167.59436.52954.08759,1.05872.17993,1.58875.26324.92871.14539,1.86169.27728,2.79456.40997.76196.10883,1.52344.21985,2.28601.31982.7572.09888,1.5177.18726,2.27747.27777.93848.11212,1.87683.22314,2.81592.32196.64014.06708,1.28247.12634,1.92444.18744,1.05627.10089,2.11267.19727,3.16956.28143.57373.04553,1.14893.08527,1.724.12598,1.11536.07916,2.23059.15155,3.34619.21204.56262.03052,1.12659.05664,1.69043.08258,1.10706.05078,2.21387.09369,3.32092.12616.61597.01825,1.23291.03302,1.85034.04578,1.01086.02039,2.02148.03314,3.03198.03839.40161.00238.80054.0152,1.20264.0152h270.71753l211.56616-.00006c.40039,0,.79785-.01282,1.19751-.01514,1.01416-.00525,2.02783-.01801,3.04224-.03851.61426-.0127,1.22778-.02734,1.84082-.04553,1.11011-.03253,2.22046-.07556,3.33081-.12653.56079-.02576,1.12134-.05182,1.68091-.08215,1.1189-.06067,2.23755-.13324,3.3562-.21265.57178-.04053,1.14404-.08002,1.71436-.12524,1.0603-.08441,2.12012-.18115,3.17969-.28235.63867-.06079,1.27783-.11975,1.91479-.18652.94263-.09918,1.88428-.21057,2.82617-.32312.75659-.09009,1.51343-.1781,2.26733-.27655.76611-.1004,1.53125-.21204,2.29688-.32135.9292-.1322,1.85889-.26355,2.78418-.40845.53369-.08386,1.06641-.17682,1.59985-.26508,1.15283-.19006,2.30444-.38293,3.45068-.59247.24829-.04553.49585-.09601.7439-.14252,37.18018-6.94238,70.76758-24.08362,97.74536-48.41998.05591-.05029.11304-.09961.16895-.14996.83447-.75446,1.65698-1.52185,2.47852-2.28998.47388-.44177.95386-.87891,1.42285-1.32452.1189-.1134.23511-.22998.35376-.34369,10.53076-10.05682,19.7771-21.07538,27.70068-32.81976.02441-.03613.04956-.07178.07397-.10797.68726-1.0202,1.35962-2.04834,2.02686-3.07928Z"/><path class="cls-2" d="m577.06683,388.92498l-211.56616.00006c-111.32996,0-201.58057,90.25067-201.58051,201.58057,0,111.3299,90.25067,201.58057,201.58057,201.58057h270.71762l211.56616-.00006c111.32996,0,201.58057-90.25067,201.58051-201.58057,0-111.32991-100.91733-201.58057-201.58057-201.58057h-270.71762Z"/><path class="cls-2" d="m531.10604,705.4466c-63.49013,91.45139-189.09498,114.11839-280.54629,50.62831-91.45139-63.49013-114.11844-189.0949-50.62831-280.54629L441.23872,127.94886c63.49013-91.45139,189.09498-114.11839,280.54629-50.62831,91.45139,63.49013,114.11844,189.0949,50.62831,280.54629l-241.30727,347.57976Z"/><circle class="cls-1" cx="367.66629" cy="590.23922" r="183.33333"/><path class="cls-2" d="m682.17913,705.4466c63.49013,91.45139,189.09498,114.11839,280.54629,50.62831,91.45139-63.49013,114.11844-189.0949,50.62831-280.54629l-241.30727-347.57976c-63.49013-91.45139-189.09498-114.11839-280.54629-50.62831-91.45139,63.49013-114.11844,189.0949-50.62831,280.54629l21.56213,31.05816,144.20865,207.7186,75.53649,108.803Z"/><circle class="cls-1" cx="843.66518" cy="590.23922" r="183.33333"/><g><path d="m316.64292,573.75195v-33.60059h21.55176v4.65625h-16.03223v10.36816h12.91211l-.62402,4.7041h-12.28809v13.87207h-5.51953Z"/><path d="m348.70738,574.37598c-2.625,0-4.65625-.64844-6.09668-1.94434-1.43945-1.2959-2.16016-3.11133-2.16016-5.44824,0-2.01562.63184-3.66309,1.89648-4.94336,1.26367-1.28027,3.11133-2.08008,5.54395-2.40039l8.68848-1.15234v-.19141c0-3.64844-1.63281-5.47266-4.89648-5.47266h-.52832c-1.37598,0-2.51953.24902-3.43164.74414-.91211.49707-1.65625,1.33691-2.23242,2.52051l-4.0791-2.1123c.73535-1.69531,1.94336-3.03125,3.62305-4.00781,1.68066-.97559,3.7207-1.46387,6.12012-1.46387h.7207c3.26367,0,5.74316.82422,7.43945,2.47168,1.69629,1.64844,2.54395,4.05566,2.54395,7.22461v15.55176h-4.65527v-3.74414c-.7373,1.34375-1.82422,2.4082-3.26465,3.19238-1.43945.7832-3.07227,1.17578-4.89551,1.17578h-.33594Zm7.87207-12.19238l-6.52832.95996c-1.66406.22461-2.82422.59277-3.48047,1.10449s-.9834,1.3125-.9834,2.39941c0,1.08887.37598,1.94434,1.12793,2.56836.75098.62402,1.81543.93555,3.19141.93555h.48047c1.8877,0,3.3916-.58301,4.51172-1.75195,1.12012-1.16699,1.68066-2.72754,1.68066-4.67969v-1.53613Z"/><path d="m377.4105,574.37598c-5.56836,0-9.12012-1.87207-10.65625-5.61621l4.12793-2.1123c.54395,1.15234,1.33594,2.00098,2.37598,2.54395,1.04004.54492,2.44043.81641,4.2002.81641h.57617c3.2959,0,4.94434-.97559,4.94434-2.92773v-.19238c0-1.66309-1.04102-2.63965-3.12012-2.92773l-5.23242-.7207c-2.27246-.31934-4.02441-1.06348-5.25586-2.23145-1.23242-1.16797-1.84766-2.72754-1.84766-4.67969v-.52832c0-2.20801.86328-3.97559,2.5918-5.30371,1.72754-1.32812,4.03223-1.99219,6.91211-1.99219h.67188c2.36719,0,4.39941.47949,6.0957,1.43945s2.89551,2.28906,3.60059,3.98438l-4.22461,1.87207c-.86426-1.95117-2.7041-2.92773-5.51953-2.92773h-.57617c-1.4082,0-2.50391.25586-3.28809.76758-.78418.5127-1.17578,1.2168-1.17578,2.1123v.24023c0,.73633.23145,1.31934.69531,1.75195.46387.43164,1.24023.72754,2.32812.8877l5.32812.71973c2.27148.32031,4.02441,1.1123,5.25586,2.37598,1.23145,1.26465,1.84863,2.88867,1.84863,4.87207v.52832c0,2.36816-.84863,4.16797-2.54395,5.39941-1.69727,1.23145-4.17676,1.84863-7.44043,1.84863h-.67188Z"/><path d="m404.33824,573.99219c-3.10449,0-5.3125-.69629-6.62402-2.08887-1.3125-1.3916-1.96875-3.38379-1.96875-5.97559v-12.38379h-5.18359v-4.36816h5.18359v-7.24805h5.28027v7.24805h8.0166l-.62402,4.36816h-7.39258v12.14355c0,1.37598.31934,2.36035.95996,2.95215.63965.59277,1.59961.8877,2.87988.8877h4.17676v4.46484h-4.7041Z"/><path d="m276.77964,631.97559c-6.81641,0-11.18457-2.44824-13.10449-7.34375l4.6084-2.40039c.70312,1.66504,1.74414,2.91309,3.12012,3.74414,1.375.83301,3.15137,1.24805,5.32812,1.24805h.57617c2.30371,0,4.0791-.4082,5.32715-1.22363,1.24805-.81641,1.87207-2.00781,1.87207-3.57617v-.52832c0-1.31152-.40039-2.3916-1.19922-3.23926-.80078-.84766-2.04883-1.38379-3.74414-1.6084l-5.66406-.86426c-6.17676-.83105-9.26465-3.8877-9.26465-9.16797v-.57617c0-1.8877.50488-3.52734,1.5127-4.91992,1.00781-1.3916,2.41504-2.47168,4.22363-3.23926,1.80762-.76855,3.91211-1.15234,6.3125-1.15234h.67188c2.97559,0,5.50293.59961,7.58398,1.7998,2.0791,1.2002,3.56738,2.93652,4.46387,5.20801l-4.7998,2.06445c-1.08887-2.91211-3.52051-4.36816-7.2959-4.36816h-.57617c-2.04883,0-3.66504.41602-4.84863,1.24805s-1.77539,1.93652-1.77539,3.31152v.57617c0,2.36816,1.61523,3.80859,4.84766,4.32031l5.66406.81543c3.13574.41699,5.47949,1.46387,7.03223,3.14453,1.55176,1.67969,2.32812,3.84766,2.32812,6.50391v.57617c0,3.04004-1.09668,5.4082-3.28809,7.10352-2.19238,1.69629-5.27246,2.54395-9.24023,2.54395h-.67188Z"/><path d="m301.97886,631.97559c-2.62402,0-4.65625-.64746-6.0957-1.94336-1.44043-1.29688-2.16016-3.1123-2.16016-5.44824,0-2.0166.63184-3.66406,1.89551-4.94434,1.26465-1.2793,3.1123-2.08008,5.54492-2.39941l8.6875-1.15234v-.19238c0-3.64746-1.63184-5.47168-4.89551-5.47168h-.52832c-1.37598,0-2.52051.24805-3.43164.74414-.91211.49609-1.65625,1.33594-2.23242,2.51953l-4.08008-2.11133c.73535-1.69629,1.94434-3.03223,3.62402-4.00879,1.67969-.97559,3.71973-1.46387,6.12012-1.46387h.71973c3.26367,0,5.74414.82422,7.44043,2.47266,1.69531,1.64844,2.54395,4.05566,2.54395,7.22363v15.55176h-4.65625v-3.74414c-.73633,1.34473-1.82422,2.4082-3.26367,3.19238-1.44043.78418-3.07227,1.17578-4.89648,1.17578h-.33594Zm7.87207-12.19141l-6.52832.95996c-1.66406.22363-2.82422.5918-3.47949,1.10352-.65625.5127-.98438,1.3125-.98438,2.40039s.37598,1.94336,1.12793,2.56738,1.81641.93652,3.19238.93652h.47949c1.88867,0,3.3916-.58398,4.5127-1.75195,1.11914-1.16797,1.67969-2.72754,1.67969-4.68066v-1.53516Z"/><path d="m321.80308,631.35156v-24.57617h4.65625v3.64844c.73535-1.34375,1.71973-2.40039,2.95117-3.16797s2.68066-1.15234,4.34473-1.15234h.43164c3.71191,0,6.27148,1.52051,7.67969,4.56055.76855-1.4082,1.81641-2.52051,3.14453-3.33594,1.32715-.81641,2.87207-1.22461,4.63184-1.22461h.43164c2.68848,0,4.80762.86426,6.36035,2.59277,1.55176,1.72754,2.32812,4.22363,2.32812,7.4873v15.16797h-5.28027v-14.44824c0-2.01562-.37598-3.55859-1.12793-4.63184-.75195-1.07129-1.94434-1.60742-3.57617-1.60742h-.38379c-.89648,0-1.76855.25586-2.61621.76758-.84766.5127-1.53613,1.2959-2.06348,2.35254-.52832,1.05566-.79199,2.39941-.79199,4.03125v13.53613h-5.28027v-14.44824c0-2.01562-.37695-3.55859-1.12793-4.63184-.75195-1.07129-1.94434-1.60742-3.57617-1.60742h-.38379c-.89648,0-1.76855.25586-2.61621.76758-.84766.5127-1.53613,1.2959-2.06348,2.35254-.52832,1.05566-.79199,2.39941-.79199,4.03125v13.53613h-5.28027Z"/><path d="m365.43492,640.95215v-34.17676h4.65625v3.60059c.76758-1.34375,1.83105-2.3916,3.19141-3.14453,1.36035-.75098,2.9834-1.12793,4.87207-1.12793h.28809c2.01562,0,3.80762.47266,5.37598,1.41602,1.56738.94434,2.80762,2.32031,3.71973,4.12793.91211,1.80859,1.36816,4.02441,1.36816,6.64844v1.58398c0,2.5918-.45605,4.79199-1.36816,6.59961-.91211,1.80859-2.15234,3.17676-3.71973,4.10449-1.56836.92773-3.36035,1.3916-5.37598,1.3916h-.28809c-1.63184,0-3.08008-.30469-4.34375-.91211-1.26465-.60742-2.29688-1.4707-3.0957-2.5918v12.48047h-5.28027Zm11.42383-13.48828h.38379c1.82422,0,3.34375-.60742,4.56055-1.82422,1.21582-1.21582,1.82324-3.13574,1.82324-5.75977v-1.63184c0-2.62402-.60742-4.54395-1.82324-5.75977-1.2168-1.21582-2.73633-1.82422-4.56055-1.82422h-.38379c-1.08789,0-2.10449.25586-3.04785.76758-.94434.5127-1.71191,1.32812-2.30371,2.44824-.59277,1.12012-.88867,2.5918-.88867,4.41602v1.48828c0,1.79199.2959,3.25586.88867,4.3916.5918,1.13672,1.36719,1.96777,2.32715,2.49609s1.96875.79199,3.02441.79199Z"/><path d="m394.52183,631.35156v-35.04004h5.28027v35.04004h-5.28027Z"/><path d="m406.66636,602.4082v-5.52051h5.47168v5.52051h-5.47168Zm.0957,28.94336v-24.57617h5.28027v24.57617h-5.28027Z"/><path d="m419.00132,631.35156v-24.57617h4.65625v3.69629c.76758-1.34375,1.81543-2.40723,3.14355-3.19141,1.32715-.78418,2.9043-1.17676,4.72852-1.17676h.47949c2.78418,0,5.00781.86426,6.67188,2.59277,1.66406,1.72754,2.49609,4.22363,2.49609,7.4873v15.16797h-5.28027v-14.44824c0-2.01562-.43164-3.55859-1.2959-4.63184-.86328-1.07129-2.17578-1.60742-3.93555-1.60742h-.33594c-1.02441,0-2.00098.25586-2.92871.76758-.92773.5127-1.67969,1.2959-2.25586,2.35254-.57617,1.05566-.86328,2.39941-.86328,4.03125v13.53613h-5.28027Z"/><path d="m457.68882,641.62402c-2.43262,0-4.44043-.38379-6.02441-1.15234-1.58398-.76758-2.82422-1.9043-3.71973-3.4082l3.79199-2.83203c.63965,1.05664,1.43164,1.81641,2.37598,2.28027.94336.46387,2.2002.69629,3.76855.69629h.62402c4.0957,0,6.14355-2.32031,6.14355-6.95996v-2.54395c-1.66406,2.33594-4.12793,3.50391-7.3916,3.50391h-.33594c-2.08105,0-3.90527-.49609-5.47266-1.48828-1.56836-.99121-2.78418-2.38379-3.64746-4.17578-.86426-1.79199-1.2959-3.87207-1.2959-6.24023v-1.2959c0-2.36816.43164-4.44727,1.2959-6.24023.86328-1.79199,2.0791-3.18359,3.64746-4.17578,1.56738-.99121,3.3916-1.48828,5.47266-1.48828h.33594c3.77539,0,6.46289,1.44043,8.06348,4.32031v-3.64844h4.65625v23.32812c0,3.67969-.97656,6.52051-2.92773,8.52051-1.95215,1.99902-4.73633,3-8.35254,3h-1.00781Zm.38379-14.92773h.43262c1.8877,0,3.39941-.67969,4.53516-2.04004s1.7041-3.16016,1.7041-5.40039v-1.2002c0-2.27148-.56836-4.07129-1.7041-5.39941s-2.64746-1.99219-4.53516-1.99219h-.43262c-1.95215,0-3.48828.64746-4.60742,1.94336-1.12109,1.2959-1.68066,3.08105-1.68066,5.35254v1.34375c0,2.27246.55957,4.07227,1.68066,5.40039,1.11914,1.32812,2.65527,1.99219,4.60742,1.99219Z"/></g><g><path d="m790.19664,547.35938v-33.60059h6.62402l11.2793,26.25586,11.28027-26.25586h6.43262v33.60059h-5.28027v-24.48047l-10.56055,24.48047h-3.93555l-10.6084-24.62402v24.62402h-5.23145Z"/><path d="m843.8607,547.9834c-2.20801,0-4.18457-.47266-5.92773-1.41602-1.74512-.94336-3.12891-2.32812-4.15234-4.15234-1.02441-1.82422-1.53613-4.01562-1.53613-6.57617v-1.53613c0-2.5918.51172-4.79102,1.53613-6.59961,1.02344-1.80762,2.40723-3.19238,4.15234-4.15234,1.74316-.95996,3.71973-1.43945,5.92773-1.43945h.43164c2.20801,0,4.19238.47949,5.95215,1.43945s3.14453,2.34473,4.15234,4.15234c1.00781,1.80859,1.51172,3.99219,1.51172,6.55176v1.58398c0,2.56055-.50391,4.75195-1.51172,6.57617s-2.39258,3.20898-4.15234,4.15234-3.74414,1.41602-5.95215,1.41602h-.43164Zm0-4.5127h.38379c1.82422,0,3.34375-.62402,4.56055-1.87109,1.21484-1.24805,1.82324-3.13574,1.82324-5.66406v-1.77637c0-2.52734-.6084-4.4082-1.82324-5.63965-1.2168-1.23145-2.73633-1.84863-4.56055-1.84863h-.38379c-1.79297,0-3.2959.61719-4.51172,1.84863-1.2168,1.23145-1.82422,3.1123-1.82422,5.63965v1.77637c0,2.52832.60742,4.41602,1.82422,5.66406,1.21582,1.24707,2.71875,1.87109,4.51172,1.87109Z"/><path d="m870.6439,547.9834c-2.01562,0-3.80859-.46484-5.37598-1.39258-1.56836-.92773-2.80078-2.2959-3.69629-4.10352s-1.34375-4.02344-1.34375-6.64844v-1.63184c0-2.5918.44824-4.7832,1.34375-6.57617.89551-1.79102,2.12793-3.15918,3.69629-4.10352,1.56738-.94336,3.36035-1.41602,5.37598-1.41602h.33594c1.63184,0,3.08008.31152,4.34375.93555s2.2959,1.5127,3.09668,2.66406v-13.3916h5.2793v35.04004h-4.65527v-3.64844c-.80078,1.34375-1.87207,2.39258-3.2168,3.14453-1.34375.75098-2.95996,1.12793-4.84766,1.12793h-.33594Zm1.2002-4.5127h.38379c1.08789,0,2.10352-.26367,3.04785-.79199.94336-.52734,1.71191-1.35156,2.30469-2.47168.59082-1.12012.8877-2.5918.8877-4.41602v-1.48828c0-1.79102-.29688-3.24707-.8877-4.36719-.59277-1.12012-1.36133-1.94434-2.30469-2.47266-.94434-.52734-1.95996-.79199-3.04785-.79199h-.38379c-1.82422,0-3.33594.6084-4.53613,1.82422-1.2002,1.2168-1.7998,3.12012-1.7998,5.71191v1.67969c0,2.59277.59961,4.50488,1.7998,5.73633,1.2002,1.23242,2.71191,1.84766,4.53613,1.84766Z"/><path d="m900.69175,547.9834c-3.58496,0-6.37695-1.04785-8.37598-3.14453-2.00098-2.0957-3-5.0791-3-8.95215v-1.58398c0-3.80762,1.02344-6.79199,3.07129-8.95117,2.04785-2.16016,4.81641-3.24023,8.30469-3.24023h.43164c3.32812,0,5.95996,1.04004,7.89551,3.12012,1.93652,2.08008,2.9043,4.87988,2.9043,8.39941v2.92871h-17.42383c.0957,2.39941.67969,4.19238,1.75195,5.37598s2.55176,1.77539,4.44043,1.77539h.71973c1.43945,0,2.63184-.24707,3.57617-.74414.94336-.49512,1.7041-1.23926,2.2793-2.23145l3.84082,2.49609c-.86426,1.47168-2.12891,2.63184-3.79199,3.47949-1.66504.84766-3.63281,1.27246-5.9043,1.27246h-.71973Zm-6.14453-15.12012h12.24023v-.33594c0-1.98438-.50391-3.49609-1.51172-4.53613-1.00879-1.04004-2.4082-1.56055-4.2002-1.56055h-.38379c-1.76074,0-3.17676.54492-4.24805,1.63281-1.07324,1.08789-1.7041,2.6875-1.89648,4.7998Z"/><path d="m768.35679,605.58301c-4.83301,0-8.52051-1.43945-11.06445-4.31934-2.54395-2.88086-3.81641-6.92773-3.81641-12.14453v-2.01562c0-3.36035.5918-6.26465,1.77637-8.71191,1.18359-2.44824,2.8877-4.33594,5.1123-5.66406,2.22363-1.32812,4.8877-1.99219,7.99219-1.99219h.47949c3.23145,0,5.93555.72852,8.1123,2.18359,2.17578,1.45703,3.71191,3.5127,4.60742,6.16797l-5.08789,1.77637c-.54395-1.79199-1.48047-3.12793-2.80762-4.00781-1.32812-.87988-2.93652-1.32031-4.82422-1.32031h-.43164c-2.94434,0-5.24902.97656-6.91211,2.92773-1.66406,1.95215-2.49609,4.80078-2.49609,8.54395v2.25684c0,3.83984.80762,6.71973,2.42383,8.63965,1.61523,1.91992,3.94336,2.87988,6.98438,2.87988h.43164c1.95117,0,3.61621-.43164,4.99219-1.2959,1.375-.86426,2.33496-2.16016,2.87988-3.8877l4.99219,1.91992c-.92871,2.56055-2.50488,4.54395-4.72852,5.95215-2.22461,1.4082-4.93652,2.11133-8.13574,2.11133h-.47949Z"/><path d="m797.2523,605.58301c-2.20801,0-4.18457-.47266-5.92773-1.41602-1.74512-.94336-3.12891-2.32812-4.15234-4.15137-1.02441-1.82422-1.53613-4.01562-1.53613-6.57617v-1.53613c0-2.5918.51172-4.79199,1.53613-6.59961,1.02344-1.80762,2.40723-3.19238,4.15234-4.15234,1.74316-.95996,3.71973-1.44043,5.92773-1.44043h.43164c2.20801,0,4.19238.48047,5.95215,1.44043s3.14453,2.34473,4.15234,4.15234,1.51172,3.99219,1.51172,6.55176v1.58398c0,2.56055-.50391,4.75195-1.51172,6.57617-1.00781,1.82324-2.39258,3.20801-4.15234,4.15137s-3.74414,1.41602-5.95215,1.41602h-.43164Zm0-4.51172h.38379c1.82422,0,3.34375-.62402,4.56055-1.87207,1.21484-1.24805,1.82324-3.13574,1.82324-5.66406v-1.77637c0-2.52734-.6084-4.40723-1.82324-5.63965-1.2168-1.23145-2.73633-1.84766-4.56055-1.84766h-.38379c-1.79297,0-3.2959.61621-4.51172,1.84766-1.2168,1.23242-1.82422,3.1123-1.82422,5.63965v1.77637c0,2.52832.60742,4.41602,1.82422,5.66406,1.21582,1.24805,2.71875,1.87207,4.51172,1.87207Z"/><path d="m820.48374,604.95898l-9.50391-24.57617h5.56836l6.38379,18.09668,6.38379-18.09668h5.23242l-9.45605,24.57617h-4.6084Z"/><path d="m847.69957,605.58301c-3.58398,0-6.37598-1.04785-8.37598-3.14355s-3-5.08008-3-8.95215v-1.58398c0-3.80762,1.02344-6.79199,3.07227-8.95215,2.04688-2.16016,4.81543-3.24023,8.30371-3.24023h.43164c3.32812,0,5.95996,1.04102,7.89648,3.12012,1.93555,2.08105,2.9043,4.88086,2.9043,8.40039v2.92773h-17.42383c.0957,2.40039.67871,4.19238,1.75195,5.37598,1.07129,1.18457,2.55078,1.77637,4.43945,1.77637h.71973c1.44043,0,2.63184-.24805,3.57617-.74414.94336-.49609,1.7041-1.24023,2.28027-2.23242l3.83984,2.49609c-.86426,1.47266-2.12793,2.63281-3.79199,3.48047s-3.63184,1.27148-5.9043,1.27148h-.71973Zm-6.14355-15.12012h12.23926v-.33594c0-1.9834-.50391-3.49512-1.51172-4.53613-1.00781-1.03906-2.4082-1.55957-4.2002-1.55957h-.38379c-1.75977,0-3.17578.54492-4.24805,1.63184-1.07227,1.08887-1.7041,2.68848-1.89551,4.7998Z"/><path d="m864.40367,604.95898v-24.57617h4.65625v4.65625c.60742-1.50391,1.46387-2.70312,2.56738-3.59961,1.10449-.89551,2.64746-1.34375,4.63184-1.34375h2.49609v4.89551h-2.44727c-1.15234,0-2.23242.25684-3.24023.76758-1.00781.5127-1.82422,1.32031-2.44824,2.4248-.62402,1.10352-.93555,2.56738-.93555,4.3916v12.38379h-5.28027Z"/><path d="m889.31675,605.58301c-2.625,0-4.65625-.64746-6.09668-1.94336-1.43945-1.29688-2.16016-3.1123-2.16016-5.44824,0-2.0166.63184-3.66406,1.89648-4.94434,1.26367-1.2793,3.11133-2.08008,5.54395-2.39941l8.68848-1.15234v-.19238c0-3.64746-1.63281-5.47168-4.89648-5.47168h-.52832c-1.37598,0-2.51953.24805-3.43164.74414s-1.65625,1.33594-2.23242,2.51953l-4.0791-2.11133c.73535-1.69629,1.94336-3.03223,3.62305-4.00879,1.68066-.97559,3.7207-1.46387,6.12012-1.46387h.7207c3.26367,0,5.74316.82422,7.43945,2.47266s2.54395,4.05566,2.54395,7.22363v15.55176h-4.65527v-3.74414c-.7373,1.34473-1.82422,2.4082-3.26465,3.19238-1.43945.78418-3.07227,1.17578-4.89551,1.17578h-.33594Zm7.87207-12.19141l-6.52832.95996c-1.66406.22363-2.82422.5918-3.48047,1.10352-.65625.5127-.9834,1.3125-.9834,2.40039s.37598,1.94336,1.12793,2.56738c.75098.62402,1.81543.93652,3.19141.93652h.48047c1.8877,0,3.3916-.58398,4.51172-1.75195s1.68066-2.72754,1.68066-4.68066v-1.53516Z"/><path d="m918.97984,615.23145c-2.43262,0-4.44043-.38379-6.02441-1.15234-1.58398-.76758-2.82422-1.9043-3.71973-3.4082l3.79199-2.83203c.63965,1.05664,1.43164,1.81641,2.37598,2.28027.94336.46387,2.2002.69629,3.76855.69629h.62402c4.0957,0,6.14355-2.32031,6.14355-6.95996v-2.54395c-1.66406,2.33594-4.12793,3.50391-7.3916,3.50391h-.33594c-2.08105,0-3.90527-.49609-5.47266-1.48828-1.56836-.99121-2.78418-2.38379-3.64746-4.17578-.86426-1.79199-1.2959-3.87207-1.2959-6.24023v-1.2959c0-2.36816.43164-4.44727,1.2959-6.24023.86328-1.79199,2.0791-3.18359,3.64746-4.17578,1.56738-.99121,3.3916-1.48828,5.47266-1.48828h.33594c3.77539,0,6.46289,1.44043,8.06348,4.32031v-3.64844h4.65625v23.32812c0,3.67969-.97656,6.52051-2.92773,8.52051-1.95215,1.99902-4.73633,3-8.35254,3h-1.00781Zm.38379-14.92773h.43262c1.8877,0,3.39941-.67969,4.53516-2.04004s1.7041-3.16016,1.7041-5.40039v-1.2002c0-2.27148-.56836-4.07129-1.7041-5.39941s-2.64746-1.99219-4.53516-1.99219h-.43262c-1.95215,0-3.48828.64746-4.60742,1.94336-1.12109,1.2959-1.68066,3.08105-1.68066,5.35254v1.34375c0,2.27246.55957,4.07227,1.68066,5.40039,1.11914,1.32812,2.65527,1.99219,4.60742,1.99219Z"/><path d="m948.06773,605.58301c-3.58496,0-6.37695-1.04785-8.37598-3.14355-2.00098-2.0957-3-5.08008-3-8.95215v-1.58398c0-3.80762,1.02344-6.79199,3.07129-8.95215s4.81641-3.24023,8.30469-3.24023h.43164c3.32812,0,5.95996,1.04102,7.89551,3.12012,1.93652,2.08105,2.9043,4.88086,2.9043,8.40039v2.92773h-17.42383c.0957,2.40039.67969,4.19238,1.75195,5.37598,1.07227,1.18457,2.55176,1.77637,4.44043,1.77637h.71973c1.43945,0,2.63184-.24805,3.57617-.74414.94336-.49609,1.7041-1.24023,2.2793-2.23242l3.84082,2.49609c-.86426,1.47266-2.12891,2.63281-3.79199,3.48047-1.66504.84766-3.63281,1.27148-5.9043,1.27148h-.71973Zm-6.14453-15.12012h12.24023v-.33594c0-1.9834-.50391-3.49512-1.51172-4.53613-1.00879-1.03906-2.4082-1.55957-4.2002-1.55957h-.38379c-1.76074,0-3.17676.54492-4.24805,1.63184-1.07324,1.08887-1.7041,2.68848-1.89648,4.7998Z"/><path d="m760.24546,662.55957v-33.60059h12.81543c3.32812,0,6.13574.64062,8.4248,1.91992,2.28711,1.28027,4.03125,3.09668,5.23145,5.44824,1.2002,2.35254,1.7998,5.14453,1.7998,8.37598v2.0166c0,4.92773-1.33594,8.7998-4.00781,11.61523-2.67188,2.81641-6.48828,4.22461-11.44824,4.22461h-12.81543Zm5.51953-4.75195h7.2002c3.23145,0,5.71191-.91211,7.44043-2.73633,1.72754-1.82422,2.5918-4.55957,2.5918-8.20801v-2.25586c0-3.55176-.86426-6.25586-2.5918-8.1123-1.72852-1.85547-4.20898-2.78418-7.44043-2.78418h-7.2002v24.09668Z"/><path d="m794.6605,633.61523v-5.51953h5.47168v5.51953h-5.47168Zm.0957,28.94434v-24.57617h5.28027v24.57617h-5.28027Z"/><path d="m813.66734,662.55957l-9.50391-24.57617h5.56836l6.38379,18.0957,6.38379-18.0957h5.23242l-9.45605,24.57617h-4.6084Z"/><path d="m840.88414,663.18359c-3.58496,0-6.37695-1.04785-8.37598-3.14453-2.00098-2.0957-3-5.0791-3-8.95215v-1.58398c0-3.80762,1.02344-6.79199,3.07129-8.95117,2.04785-2.16016,4.81641-3.24023,8.30469-3.24023h.43164c3.32812,0,5.95996,1.04004,7.89551,3.12012,1.93652,2.08008,2.9043,4.87988,2.9043,8.39941v2.92871h-17.42383c.0957,2.39941.67969,4.19238,1.75195,5.37598s2.55176,1.77539,4.44043,1.77539h.71973c1.43945,0,2.63184-.24707,3.57617-.74414.94336-.49512,1.7041-1.23926,2.2793-2.23145l3.84082,2.49609c-.86426,1.47168-2.12891,2.63184-3.79199,3.47949-1.66504.84766-3.63281,1.27246-5.9043,1.27246h-.71973Zm-6.14453-15.12012h12.24023v-.33594c0-1.98438-.50391-3.49609-1.51172-4.53613-1.00879-1.04004-2.4082-1.56055-4.2002-1.56055h-.38379c-1.76074,0-3.17676.54492-4.24805,1.63281-1.07324,1.08789-1.7041,2.6875-1.89648,4.7998Z"/><path d="m857.58726,662.55957v-24.57617h4.65625v4.65625c.60742-1.50391,1.46387-2.7041,2.56836-3.60059,1.10352-.89551,2.64746-1.34375,4.63184-1.34375h2.49609v4.89648h-2.44824c-1.15234,0-2.23242.25586-3.24023.76758s-1.82324,1.32031-2.44727,2.42383c-.62402,1.10449-.93652,2.56836-.93652,4.39258v12.38379h-5.28027Z"/><path d="m885.3314,663.18359c-5.56738,0-9.11914-1.87207-10.65527-5.61621l4.12793-2.1123c.54395,1.15234,1.33594,2.00098,2.37598,2.54395,1.03906.54492,2.43945.81641,4.2002.81641h.5752c3.2959,0,4.94434-.97559,4.94434-2.92773v-.19238c0-1.66309-1.04004-2.63965-3.12012-2.92773l-5.23145-.7207c-2.27246-.31934-4.02441-1.06348-5.25586-2.23145-1.23242-1.16797-1.84863-2.72754-1.84863-4.67969v-.52832c0-2.20801.86426-3.97559,2.5918-5.30371,1.72852-1.32812,4.03223-1.99219,6.91211-1.99219h.67188c2.36816,0,4.39941.47949,6.09668,1.43945,1.69531.95996,2.89551,2.28906,3.59961,3.98438l-4.22363,1.87207c-.86426-1.95117-2.70508-2.92773-5.52051-2.92773h-.57617c-1.4082,0-2.50391.25586-3.28809.76758-.78418.5127-1.17578,1.2168-1.17578,2.1123v.24023c0,.73633.23242,1.31934.69629,1.75195.46387.43164,1.23926.72754,2.32812.8877l5.32812.71973c2.27148.32031,4.02344,1.1123,5.25586,2.37598,1.23145,1.26465,1.84766,2.88867,1.84766,4.87207v.52832c0,2.36816-.84766,4.16797-2.54395,5.39941s-4.17578,1.84863-7.43945,1.84863h-.67285Z"/><path d="m901.02769,633.61523v-5.51953h5.47168v5.51953h-5.47168Zm.0957,28.94434v-24.57617h5.28027v24.57617h-5.28027Z"/><path d="m924.16246,662.79981c-3.10449,0-5.3125-.69629-6.62402-2.08887-1.3125-1.3916-1.96777-3.38379-1.96777-5.97559v-12.38379h-5.18359v-4.36816h5.18359v-7.24805h5.28027v7.24805h8.01562l-.62402,4.36816h-7.3916v12.14355c0,1.37598.31934,2.36035.95996,2.95215.63965.59277,1.59961.8877,2.87988.8877h4.17578v4.46484h-4.7041Z"/><path d="m933.95445,672.15918v-4.46387h1.53613c1.43945,0,2.53516-.28027,3.28809-.83984.75098-.56055,1.39941-1.64062,1.94336-3.24023l.38379-1.05566-9.64746-24.57617h5.66406l6.71973,18.91211,6.19238-18.91211h5.32812l-9.3125,25.53613c-.83203,2.33496-1.68848,4.12793-2.56836,5.37598s-1.91992,2.10352-3.11914,2.56738c-1.2002.46387-2.72852.69629-4.58398.69629h-1.82422Z"/></g><circle class="cls-1" cx="606.64259" cy="243.15624" r="183.33333"/><g><path d="m557.85093,187.62451v-33.6001h5.51953v14.16016h16.36914v-14.16016h5.51953v33.6001h-5.51953v-14.68799h-16.36914v14.68799h-5.51953Z"/><path d="m592.93882,158.68066v-5.52002h5.47168v5.52002h-5.47168Zm.0957,28.94385v-24.57617h5.28027v24.57617h-5.28027Z"/><path d="m615.1146,197.89648c-2.43262,0-4.44043-.38379-6.02441-1.15186s-2.82422-1.9043-3.71973-3.4082l3.79199-2.83203c.63965,1.05615,1.43164,1.81592,2.37598,2.28027.94336.46338,2.19922.6958,3.76758.6958h.625c4.0957,0,6.14355-2.32031,6.14355-6.95996v-2.54395c-1.66504,2.33643-4.12793,3.50391-7.3916,3.50391h-.33594c-2.08105,0-3.90527-.49561-5.47266-1.48779-1.56836-.9917-2.78418-2.38379-3.64844-4.17627-.86328-1.7915-1.29492-3.87158-1.29492-6.23975v-1.29639c0-2.36768.43164-4.44727,1.29492-6.23975.86426-1.79199,2.08008-3.18359,3.64844-4.17578,1.56738-.9917,3.3916-1.48828,5.47266-1.48828h.33594c3.77539,0,6.46289,1.43994,8.06348,4.31982v-3.64795h4.65527v23.32812c0,3.67969-.97656,6.52002-2.92773,8.52002-1.95117,1.99951-4.73633,3-8.35156,3h-1.00781Zm.38379-14.92773h.43262c1.88672,0,3.39844-.67969,4.53516-2.04004,1.13574-1.35986,1.7041-3.16016,1.7041-5.40039v-1.19971c0-2.27197-.56836-4.07178-1.7041-5.3999-1.13672-1.32764-2.64844-1.99219-4.53516-1.99219h-.43262c-1.95215,0-3.48828.64795-4.6084,1.94385s-1.67969,3.08057-1.67969,5.35205v1.34424c0,2.27246.55957,4.07227,1.67969,5.3999,1.12012,1.32812,2.65625,1.99219,4.6084,1.99219Z"/><path d="m634.3607,187.62451v-35.04004h5.28125v13.34424c.76758-1.08789,1.76758-1.95166,3-2.59229,1.23047-.63965,2.64648-.95996,4.24805-.95996h.47949c2.78418,0,5.00684.86426,6.67188,2.59229,1.66309,1.72754,2.49609,4.22363,2.49609,7.48779v15.16797h-5.28027v-14.44824c0-2.01562-.43164-3.55908-1.2959-4.63184-.86426-1.07178-2.17676-1.60791-3.93652-1.60791h-.33594c-1.02344,0-2,.25635-2.92773.76807-.92773.51221-1.67969,1.2959-2.25586,2.35205-.57617,1.05566-.86328,2.3999-.86328,4.03174v13.53613h-5.28125Z"/><path d="m543.62046,245.84863c-3.16797,0-5.88086-.67188-8.13672-2.01611-2.25586-1.34375-3.98438-3.24756-5.18359-5.71191-1.2002-2.46387-1.80078-5.35938-1.80078-8.68799v-2.01611c0-3.32764.60059-6.22363,1.80078-8.68799,1.19922-2.46387,2.92773-4.36768,5.18359-5.71191,2.25586-1.34375,4.96875-2.01611,8.13672-2.01611h.52734c3.19922,0,5.92773.67236,8.18359,2.01611,2.25684,1.34424,3.97656,3.24805,5.16016,5.71191,1.18359,2.46436,1.77637,5.36035,1.77637,8.68799v2.01611c0,5.02441-1.3125,9.0083-3.93652,11.95215l4.27246,4.65576-3.50391,3.21631-4.6084-4.99219c-2.11133,1.05615-4.55957,1.58398-7.34375,1.58398h-.52734Zm.04688-4.7998h.48047c1.4082,0,2.67188-.22363,3.79199-.67236l-4.51172-4.896,3.50391-3.26367,4.7998,5.23193c1.375-1.98389,2.06445-4.60791,2.06445-7.87207v-2.3042c0-3.6792-.85742-6.51123-2.56836-8.49609-1.71191-1.9834-4.07227-2.97559-7.08008-2.97559h-.48047c-3.00781,0-5.36719.99219-7.0791,2.97559-1.71191,1.98486-2.56836,4.81689-2.56836,8.49609v2.3042c0,3.68018.85645,6.51221,2.56836,8.49609,1.71191,1.98438,4.07129,2.97607,7.0791,2.97607Z"/><path d="m574.14781,245.84863c-2.7207,0-4.88867-.85596-6.50391-2.56787-1.61719-1.71143-2.42383-4.2002-2.42383-7.46436v-15.16797h5.2793v14.40039c0,2.04785.4082,3.60791,1.22461,4.67969.81543,1.07275,2.05469,1.60791,3.71973,1.60791h.33594c.99121,0,1.92676-.25537,2.80762-.76758.87988-.51172,1.59961-1.30371,2.16016-2.37646.55957-1.07129.83984-2.40723.83984-4.00781v-13.53613h5.28027v24.57617h-4.7041v-3.64795c-.73633,1.3125-1.74414,2.35205-3.02344,3.12012-1.28125.76807-2.80078,1.15186-4.56055,1.15186h-.43164Z"/><path d="m600.54722,245.84863c-2.62402,0-4.65625-.64795-6.09668-1.94385-1.43945-1.29639-2.16016-3.11182-2.16016-5.44824,0-2.01611.63281-3.66357,1.89648-4.94385,1.26367-1.27979,3.11133-2.08008,5.54492-2.3999l8.6875-1.15234v-.19189c0-3.64795-1.63281-5.47217-4.89648-5.47217h-.52734c-1.37695,0-2.52051.24854-3.43164.74414-.91211.49658-1.65625,1.33643-2.23242,2.52002l-4.08008-2.11182c.73535-1.6958,1.94336-3.03174,3.62305-4.0083,1.68066-.97559,3.7207-1.46387,6.12109-1.46387h.71973c3.26367,0,5.74316.82422,7.44043,2.47217,1.69531,1.64844,2.54297,4.05566,2.54297,7.22412v15.55176h-4.65527v-3.74414c-.7373,1.34424-1.82422,2.4082-3.26465,3.19238-1.43945.78369-3.07227,1.17578-4.89551,1.17578h-.33594Zm7.87207-12.19189l-6.52832.95996c-1.66406.22412-2.82422.59229-3.47949,1.104-.65625.51221-.98438,1.3125-.98438,2.3999,0,1.08838.37598,1.94385,1.12793,2.56787.75098.62402,1.81543.93604,3.19238.93604h.47949c1.8877,0,3.3916-.5835,4.5127-1.75195,1.11914-1.16748,1.67969-2.72754,1.67969-4.68018v-1.53564Z"/><path d="m620.37046,245.22461v-35.04004h5.28125v35.04004h-5.28125Z"/><path d="m632.51499,216.28076v-5.52002h5.4707v5.52002h-5.4707Zm.0957,28.94385v-24.57617h5.2793v24.57617h-5.2793Z"/><path d="m655.64976,245.46484c-3.10352,0-5.3125-.69629-6.62305-2.08838-1.3125-1.39209-1.96875-3.38379-1.96875-5.97607v-12.38379h-5.18359v-4.36816h5.18359v-7.24805h5.28027v7.24805h8.0166l-.625,4.36816h-7.3916v12.14404c0,1.37598.31934,2.36035.95996,2.95215.63965.59229,1.59961.8877,2.87988.8877h4.17676v4.46436h-4.70508Z"/><path d="m665.44078,254.82471v-4.46387h1.53711c1.43945,0,2.53516-.28076,3.28711-.84033.75195-.56006,1.40039-1.64014,1.94434-3.23975l.38379-1.05615-9.64844-24.57617h5.66406l6.7207,18.91211,6.19141-18.91211h5.32812l-9.31152,25.53613c-.83301,2.33545-1.68848,4.12793-2.56836,5.37598s-1.91992,2.104-3.12012,2.56787c-1.19922.46387-2.72852.69629-4.58398.69629h-1.82422Z"/><path d="m525.13999,303.44873c-6.81641,0-11.18457-2.44824-13.10449-7.34424l4.6084-2.3999c.70312,1.66455,1.74414,2.9126,3.11914,3.74414,1.37598.83252,3.15234,1.24805,5.32812,1.24805h.57617c2.30469,0,4.08008-.4082,5.32812-1.22412s1.87207-2.00781,1.87207-3.57617v-.52783c0-1.31152-.40039-2.3916-1.2002-3.23975-.7998-.84766-2.04785-1.38379-3.74414-1.6084l-5.66406-.86377c-6.17578-.83154-9.26367-3.88818-9.26367-9.16797v-.57617c0-1.8877.50391-3.52783,1.51172-4.91992s2.41602-2.47217,4.22461-3.23975c1.80664-.76807,3.91211-1.15234,6.3125-1.15234h.67188c2.97559,0,5.50293.6001,7.58398,1.80029,2.0791,1.19971,3.56738,2.93604,4.46289,5.20801l-4.79883,2.06396c-1.08887-2.91162-3.52148-4.36816-7.29688-4.36816h-.57617c-2.04785,0-3.66406.4165-4.84766,1.24805-1.18359.83252-1.77539,1.93652-1.77539,3.31201v.57617c0,2.36816,1.61523,3.80811,4.84766,4.31982l5.66406.81592c3.13574.4165,5.47949,1.46387,7.03125,3.14404,1.55273,1.68018,2.32812,3.84814,2.32812,6.50391v.57617c0,3.04053-1.0957,5.4082-3.28711,7.104-2.19336,1.69629-5.27344,2.54395-9.24023,2.54395h-.67188Z"/><path d="m550.33921,303.44873c-2.625,0-4.65625-.64795-6.0957-1.94385-1.44043-1.29639-2.16016-3.11182-2.16016-5.44824,0-2.01611.63086-3.66357,1.89551-4.94385,1.26465-1.27979,3.1123-2.08008,5.54395-2.3999l8.68848-1.15234v-.19189c0-3.64795-1.63184-5.47217-4.89551-5.47217h-.5293c-1.375,0-2.51953.24854-3.43164.74414-.91211.49658-1.65625,1.33643-2.23242,2.52002l-4.0791-2.11182c.73535-1.6958,1.94434-3.03174,3.62402-4.0083,1.67969-.97559,3.71973-1.46387,6.11914-1.46387h.7207c3.26367,0,5.74414.82422,7.43945,2.47217,1.69629,1.64844,2.54492,4.05566,2.54492,7.22412v15.55176h-4.65625v-3.74414c-.73633,1.34424-1.82422,2.4082-3.26367,3.19238-1.44043.78369-3.07227,1.17578-4.89648,1.17578h-.33594Zm7.87207-12.19189l-6.52832.95996c-1.66406.22412-2.82422.59229-3.48047,1.104-.65625.51221-.9834,1.3125-.9834,2.3999,0,1.08838.37598,1.94385,1.12793,2.56787s1.81641.93604,3.19141.93604h.48047c1.88867,0,3.3916-.5835,4.51172-1.75195,1.12012-1.16748,1.68066-2.72754,1.68066-4.68018v-1.53564Z"/><path d="m570.16343,302.82471v-24.57617h4.65625v3.64795c.73438-1.34375,1.71875-2.3999,2.95117-3.16797,1.23145-.76758,2.67969-1.15186,4.34375-1.15186h.43262c3.71191,0,6.27148,1.52051,7.67969,4.56006.76855-1.40771,1.81543-2.52002,3.14355-3.33594s2.87305-1.22412,4.63281-1.22412h.43164c2.6875,0,4.80762.86426,6.36035,2.59229,1.55176,1.72754,2.32715,4.22363,2.32715,7.48779v15.16797h-5.2793v-14.44824c0-2.01562-.37695-3.55908-1.12793-4.63184-.75293-1.07178-1.94434-1.60791-3.57617-1.60791h-.38379c-.89648,0-1.76855.25635-2.61621.76807-.84863.51221-1.53613,1.2959-2.06348,2.35205-.52832,1.05566-.79297,2.3999-.79297,4.03174v13.53613h-5.2793v-14.44824c0-2.01562-.37695-3.55908-1.12891-4.63184-.75195-1.07178-1.94336-1.60791-3.5752-1.60791h-.38379c-.89648,0-1.76953.25635-2.61621.76807-.84863.51221-1.53613,1.2959-2.06348,2.35205-.5293,1.05566-.79297,2.3999-.79297,4.03174v13.53613h-5.2793Z"/><path d="m613.79429,312.42481v-34.17627h4.65625v3.6001c.76855-1.34375,1.83203-2.3916,3.19238-3.14404,1.36035-.75146,2.9834-1.12793,4.87207-1.12793h.28809c2.01562,0,3.80762.47266,5.37598,1.41602,1.56738.94434,2.80762,2.32031,3.71973,4.12793.91211,1.80859,1.36816,4.02441,1.36816,6.64795v1.58398c0,2.59229-.45605,4.79248-1.36816,6.6001-.91211,1.80811-2.15234,3.17627-3.71973,4.104-1.56836.92773-3.36035,1.39209-5.37598,1.39209h-.28809c-1.63281,0-3.08008-.30469-4.34375-.91211-1.26465-.60742-2.29688-1.47119-3.0957-2.5918v12.47998h-5.28125Zm11.4248-13.48828h.38379c1.82422,0,3.34375-.60742,4.56055-1.82373,1.21484-1.21582,1.82324-3.13574,1.82324-5.76025v-1.63184c0-2.62354-.6084-4.54346-1.82324-5.75977-1.2168-1.21582-2.73633-1.82422-4.56055-1.82422h-.38379c-1.08887,0-2.10449.25635-3.04785.76807-.94531.51221-1.71289,1.32812-2.30469,2.44775-.5918,1.12061-.8877,2.59229-.8877,4.41602v1.48828c0,1.79248.2959,3.25635.8877,4.39209.5918,1.13623,1.36816,1.96777,2.32812,2.49561.95996.52832,1.96875.79199,3.02441.79199Z"/><path d="m642.88218,302.82471v-35.04004h5.28027v35.04004h-5.28027Z"/><path d="m665.15367,303.44873c-3.58398,0-6.37598-1.04785-8.375-3.14404-2.00098-2.0957-3-5.07959-3-8.95215v-1.58398c0-3.80762,1.02344-6.79199,3.07129-8.95166,2.04785-2.16016,4.81543-3.24023,8.30371-3.24023h.43164c3.32812,0,5.96094,1.04053,7.89648,3.12012,1.93555,2.08057,2.9043,4.88037,2.9043,8.3999v2.92822h-17.42383c.0957,2.3999.67969,4.19238,1.75195,5.37598,1.07227,1.18408,2.55078,1.77588,4.43945,1.77588h.7207c1.43945,0,2.63086-.24756,3.57617-.74414.94336-.49561,1.70312-1.23975,2.2793-2.23193l3.83984,2.49609c-.86328,1.47217-2.12793,2.63232-3.79102,3.47998-1.66504.84766-3.63281,1.27197-5.9043,1.27197h-.7207Zm-6.14355-15.12012h12.23926v-.33594c0-1.98389-.50391-3.49561-1.51172-4.53613-1.00781-1.03955-2.4082-1.56006-4.19922-1.56006h-.38477c-1.75977,0-3.17578.54492-4.24805,1.63232-1.07227,1.08838-1.70312,2.68799-1.89551,4.7998Z"/><path d="m690.73765,303.44873c-5.56836,0-9.12012-1.87207-10.65625-5.61621l4.12793-2.11182c.54395,1.15186,1.33594,2.00049,2.37598,2.54395,1.03906.54443,2.43945.81592,4.2002.81592h.5752c3.29688,0,4.94531-.97559,4.94531-2.92773v-.19189c0-1.66357-1.04102-2.64014-3.12109-2.92822l-5.23145-.72021c-2.27246-.31934-4.02441-1.06348-5.25586-2.23193-1.23242-1.16748-1.84863-2.72754-1.84863-4.67969v-.52832c0-2.20801.86426-3.97559,2.5918-5.30371,1.72852-1.32764,4.0332-1.99219,6.91211-1.99219h.67188c2.36816,0,4.40039.47998,6.09668,1.43994s2.89551,2.28857,3.60059,3.98389l-4.22461,1.87207c-.86426-1.95117-2.70508-2.92773-5.51953-2.92773h-.57617c-1.4082,0-2.50391.25635-3.28906.76807-.7832.51221-1.17578,1.21631-1.17578,2.11182v.24023c0,.73633.23242,1.31982.69629,1.75195.46387.43164,1.23926.72803,2.32812.8877l5.32812.72021c2.27148.32031,4.02441,1.1123,5.25586,2.37598,1.23145,1.26465,1.84863,2.88818,1.84863,4.87207v.52783c0,2.36865-.84863,4.16846-2.54492,5.3999s-4.17578,1.84814-7.43945,1.84814h-.67188Z"/></g></svg>